<?xml version="1.0" encoding="UTF-8" standalone="no"?>
<!DOCTYPE svg PUBLIC "-//W3C//DTD SVG 20010904//EN"
              "http://www.w3.org/TR/2001/REC-SVG-20010904/DTD/svg10.dtd">

<svg xmlns="http://www.w3.org/2000/svg"
     width="3.76389in" height="5.33333in"
     viewBox="0 0 271 384">
  <path id="Selection"
        fill="#3b497c" stroke="none" stroke-width="0"
        d="M 141.00,8.00
           C 141.00,8.00 141.00,69.00 141.00,69.00
             141.00,69.00 128.00,69.00 128.00,69.00
             128.00,69.00 128.00,8.00 128.00,8.00
             128.00,8.00 141.00,8.00 141.00,8.00 Z
           M 43.70,50.00
           C 42.41,47.14 37.14,36.79 37.81,34.27
             38.54,31.55 45.50,29.08 48.00,28.00
             48.00,28.00 65.30,67.00 65.30,67.00
             66.59,69.86 71.86,80.21 71.19,82.73
             70.46,85.45 63.50,87.92 61.00,89.00
             61.00,89.00 43.70,50.00 43.70,50.00 Z
           M 230.00,32.00
           C 230.00,32.00 222.05,54.00 222.05,54.00
             222.05,54.00 208.00,89.00 208.00,89.00
             208.00,89.00 197.00,85.00 197.00,85.00
             197.00,85.00 204.95,63.00 204.95,63.00
             204.95,63.00 219.00,28.00 219.00,28.00
             219.00,28.00 230.00,32.00 230.00,32.00 Z
           M 145.00,84.21
           C 177.99,84.39 213.92,103.86 234.54,129.00
             242.09,138.21 250.22,153.73 254.31,165.00
             260.67,182.55 260.03,193.96 260.00,212.00
             259.96,234.71 247.83,264.19 232.83,281.00
             229.85,284.33 220.36,293.78 217.00,296.54
             213.81,299.15 209.08,301.85 206.81,305.09
             205.19,307.41 201.68,316.79 200.40,320.00
             200.40,320.00 191.60,342.00 191.60,342.00
             185.49,357.27 181.19,369.39 165.00,376.69
             160.80,378.58 154.62,380.15 150.00,379.82
             150.00,379.82 123.00,379.00 123.00,379.00
             93.87,378.64 83.84,345.07 74.42,323.00
             73.06,319.80 68.84,309.39 67.19,307.21
             67.19,307.21 49.00,292.96 49.00,292.96
             32.89,277.58 23.32,264.02 15.69,243.00
             9.31,225.40 9.79,212.25 10.00,194.00
             10.36,163.44 29.89,130.41 53.00,111.46
             64.83,101.77 86.11,91.29 101.00,87.48
             101.00,87.48 119.00,84.21 119.00,84.21
             119.00,84.21 145.00,84.21 145.00,84.21 Z
           M 70.00,126.90
           C 36.07,152.70 21.58,198.01 37.45,238.00
             43.92,254.29 52.94,266.17 66.00,277.83
             71.24,282.50 81.27,287.96 84.37,292.04
             86.94,295.44 90.57,304.67 92.42,309.00
             92.42,309.00 104.58,337.00 104.58,337.00
             109.61,348.75 116.19,357.83 130.00,358.00
             130.00,358.00 146.00,358.00 146.00,358.00
             160.16,357.93 164.97,348.98 169.80,337.00
             169.80,337.00 182.20,306.00 182.20,306.00
             182.20,306.00 188.99,290.09 188.99,290.09
             191.43,286.50 196.46,283.79 200.00,281.10
             204.77,277.47 209.80,272.36 213.96,268.00
             228.79,252.47 238.90,227.53 239.00,206.00
             239.28,147.23 190.23,104.73 133.00,105.14
             133.00,105.14 127.00,105.14 127.00,105.14
             104.29,108.57 88.80,112.60 70.00,126.90 Z
           M 90.00,333.00
           C 90.00,333.00 91.00,334.00 91.00,334.00
             91.00,334.00 91.00,333.00 91.00,333.00
             91.00,333.00 90.00,333.00 90.00,333.00 Z" />
</svg>
