<?xml version="1.0" encoding="UTF-8" standalone="no"?>
<!DOCTYPE svg PUBLIC "-//W3C//DTD SVG 20010904//EN"
              "http://www.w3.org/TR/2001/REC-SVG-20010904/DTD/svg10.dtd">

<svg xmlns="http://www.w3.org/2000/svg"
     width="45.3333in" height="34in"
     viewBox="0 0 3264 2448">
  <path id="Selection"
        fill="black" stroke="none" stroke-width="0"
        d="M 279.91,863.00
           C 277.82,857.37 276.40,857.29 274.30,850.00
             274.30,850.00 270.36,832.00 270.36,832.00
             264.77,811.39 256.52,787.55 257.01,766.00
             257.16,759.88 258.31,758.82 259.06,754.00
             259.06,754.00 259.06,743.00 259.06,743.00
             261.05,728.66 265.11,714.56 269.91,701.00
             269.91,701.00 273.41,689.00 273.41,689.00
             273.41,689.00 280.19,678.00 280.19,678.00
             280.19,678.00 285.00,666.00 285.00,666.00
             285.00,666.00 297.24,652.00 297.24,652.00
             297.24,652.00 303.21,643.09 303.21,643.09
             303.21,643.09 325.04,619.13 325.04,619.13
             334.72,611.52 347.09,606.14 358.00,600.62
             361.04,599.08 365.63,595.30 368.00,594.68
             370.87,593.92 375.04,595.70 378.00,596.43
             381.99,597.18 389.00,597.30 393.00,596.43
             404.13,594.39 408.30,584.94 412.32,581.81
             416.68,578.42 430.66,574.93 437.09,563.00
             441.42,554.96 440.72,543.66 435.87,536.00
             430.82,528.02 423.99,526.68 427.35,518.00
             431.52,507.22 443.44,487.45 451.46,479.32
             453.86,476.89 456.37,475.55 459.00,473.48
             475.06,460.89 473.67,461.83 492.00,453.17
             509.14,445.07 511.17,443.85 530.00,441.84
             532.96,441.52 534.89,440.95 538.00,441.10
             538.00,441.10 547.00,442.70 547.00,442.70
             547.00,442.70 556.00,443.90 556.00,443.90
             562.84,445.57 564.26,447.56 570.00,450.69
             570.00,450.69 583.00,456.87 583.00,456.87
             593.01,462.50 604.18,469.86 616.00,470.00
             622.26,470.07 629.15,470.53 635.00,468.05
             647.22,462.86 657.96,445.45 655.54,432.00
             654.64,427.05 652.66,422.19 649.90,418.00
             647.92,415.00 644.29,411.74 644.53,408.00
             644.74,404.81 648.63,399.28 650.05,396.00
             655.43,383.56 657.59,381.80 664.56,371.00
             666.86,367.44 669.70,360.80 672.22,358.38
             672.22,358.38 689.00,345.10 689.00,345.10
             692.72,342.61 695.10,341.89 699.00,338.67
             699.00,338.67 709.00,329.21 709.00,329.21
             709.00,329.21 720.00,321.48 720.00,321.48
             720.00,321.48 728.00,314.79 728.00,314.79
             731.97,311.96 734.22,311.58 738.00,309.49
             738.00,309.49 757.00,297.64 757.00,297.64
             757.00,297.64 769.00,288.10 769.00,288.10
             769.00,288.10 802.00,269.27 802.00,269.27
             802.00,269.27 836.00,255.56 836.00,255.56
             844.91,251.59 843.33,249.26 856.00,243.87
             856.00,243.87 874.00,237.54 874.00,237.54
             882.09,234.13 881.69,232.98 892.00,230.29
             892.00,230.29 911.00,227.08 911.00,227.08
             911.00,227.08 926.00,221.68 926.00,221.68
             926.00,221.68 935.00,220.70 935.00,220.70
             935.00,220.70 947.00,218.43 947.00,218.43
             955.68,217.18 964.26,217.10 973.00,217.00
             973.00,217.00 998.00,214.71 998.00,214.71
             998.00,214.71 1007.00,213.11 1007.00,213.11
             1007.00,213.11 1028.00,213.11 1028.00,213.11
             1028.00,213.11 1038.00,213.11 1038.00,213.11
             1038.00,213.11 1056.00,215.08 1056.00,215.08
             1056.00,215.08 1067.00,215.08 1067.00,215.08
             1067.00,215.08 1084.00,217.00 1084.00,217.00
             1097.05,217.06 1105.49,218.87 1118.00,222.29
             1118.00,222.29 1150.00,236.13 1150.00,236.13
             1150.00,236.13 1162.00,239.86 1162.00,239.86
             1162.00,239.86 1185.00,249.23 1185.00,249.23
             1195.53,253.82 1203.61,260.46 1216.00,259.96
             1230.74,259.37 1240.58,248.48 1244.78,235.00
             1247.57,226.05 1244.17,227.06 1250.93,217.02
             1251.98,215.46 1252.95,213.89 1254.38,212.65
             1256.08,211.16 1266.63,206.32 1269.00,205.63
             1269.00,205.63 1276.00,204.54 1276.00,204.54
             1283.85,203.12 1299.46,200.03 1307.00,200.51
             1321.56,201.44 1324.63,198.92 1330.00,199.32
             1347.91,200.66 1356.56,200.97 1374.00,206.92
             1377.93,208.26 1382.48,208.86 1386.00,211.00
             1388.78,212.69 1392.72,216.57 1394.94,219.00
             1401.55,226.22 1397.58,227.77 1398.09,236.00
             1398.94,249.66 1411.09,262.58 1424.00,266.07
             1428.83,267.38 1437.73,267.06 1443.00,267.00
             1452.29,266.89 1457.30,264.41 1464.00,257.96
             1466.18,255.86 1471.30,249.48 1473.32,248.57
             1477.36,246.75 1495.78,245.20 1501.00,244.96
             1501.00,244.96 1512.00,243.09 1512.00,243.09
             1512.00,243.09 1527.00,243.09 1527.00,243.09
             1527.00,243.09 1537.00,244.00 1537.00,244.00
             1537.00,244.00 1545.00,244.00 1545.00,244.00
             1572.10,245.94 1593.48,251.41 1619.00,260.31
             1619.00,260.31 1630.00,263.87 1630.00,263.87
             1630.00,263.87 1652.00,275.69 1652.00,275.69
             1652.00,275.69 1666.00,282.80 1666.00,282.80
             1666.00,282.80 1675.00,289.13 1675.00,289.13
             1691.75,298.95 1695.88,299.17 1714.00,312.04
             1720.04,316.33 1731.27,324.07 1735.04,330.00
             1739.48,337.00 1738.47,341.53 1741.35,348.00
             1746.93,360.59 1760.90,376.06 1776.00,374.81
             1797.02,373.08 1809.45,348.97 1811.00,330.00
             1825.17,328.13 1822.18,329.60 1835.00,330.83
             1838.87,331.20 1840.82,330.74 1845.00,331.68
             1845.00,331.68 1866.00,338.48 1866.00,338.48
             1866.00,338.48 1882.00,342.86 1882.00,342.86
             1903.47,350.42 1921.61,361.26 1936.24,379.00
             1943.72,388.07 1943.58,391.91 1947.46,402.00
             1947.46,402.00 1951.11,411.00 1951.11,411.00
             1951.11,411.00 1954.09,422.00 1954.09,422.00
             1957.31,430.77 1965.09,437.83 1974.00,440.56
             1978.65,441.98 1981.25,441.99 1986.00,441.99
             1986.00,441.99 2017.00,441.99 2017.00,441.99
             2017.00,441.99 2028.00,441.19 2028.00,441.19
             2028.00,441.19 2036.00,442.71 2036.00,442.71
             2036.00,442.71 2055.00,445.45 2055.00,445.45
             2055.00,445.45 2069.00,448.72 2069.00,448.72
             2069.00,448.72 2084.00,450.44 2084.00,450.44
             2084.00,450.44 2097.00,453.33 2097.00,453.33
             2097.00,453.33 2105.00,454.32 2105.00,454.32
             2105.00,454.32 2114.00,456.58 2114.00,456.58
             2114.00,456.58 2127.00,459.33 2127.00,459.33
             2140.62,464.33 2166.24,480.69 2179.00,488.91
             2179.00,488.91 2221.00,516.52 2221.00,516.52
             2221.00,516.52 2238.00,532.91 2238.00,532.91
             2238.00,532.91 2248.91,542.04 2248.91,542.04
             2248.91,542.04 2259.00,553.00 2259.00,553.00
             2268.30,562.23 2278.47,570.40 2286.39,581.00
             2295.50,593.19 2313.89,622.41 2319.97,636.00
             2319.97,636.00 2326.69,655.00 2326.69,655.00
             2326.69,655.00 2330.56,665.00 2330.56,665.00
             2330.56,665.00 2335.68,685.00 2335.68,685.00
             2335.68,685.00 2336.46,692.00 2336.46,692.00
             2336.46,692.00 2338.72,701.00 2338.72,701.00
             2341.03,712.15 2340.75,718.49 2350.01,726.82
             2357.49,733.53 2367.97,737.40 2378.00,736.96
             2383.92,736.70 2386.22,734.92 2391.00,735.33
             2394.46,735.62 2404.92,738.12 2408.00,739.55
             2416.87,743.66 2435.56,757.59 2442.83,764.32
             2442.83,764.32 2452.00,773.99 2452.00,773.99
             2452.00,773.99 2460.83,782.09 2460.83,782.09
             2470.39,792.07 2477.82,803.50 2485.34,815.00
             2485.34,815.00 2493.05,826.00 2493.05,826.00
             2499.50,836.29 2509.90,858.38 2513.38,870.00
             2513.38,870.00 2518.71,895.00 2518.71,895.00
             2518.71,895.00 2519.30,904.00 2519.30,904.00
             2519.30,904.00 2520.53,911.00 2520.53,911.00
             2520.53,911.00 2520.00,920.00 2520.00,920.00
             2520.00,920.00 2520.00,938.00 2520.00,938.00
             2520.00,938.00 2518.00,959.00 2518.00,959.00
             2517.97,975.05 2514.48,1000.52 2510.40,1016.00
             2506.13,1032.19 2497.20,1050.02 2497.00,1067.00
             2497.00,1067.00 2497.00,1073.00 2497.00,1073.00
             2497.01,1079.01 2497.08,1081.24 2499.23,1087.00
             2500.95,1091.62 2503.12,1096.20 2506.33,1099.99
             2520.70,1116.96 2553.17,1114.00 2573.00,1119.91
             2578.87,1121.66 2588.60,1128.35 2594.00,1131.95
             2594.00,1131.95 2602.00,1138.56 2602.00,1138.56
             2618.81,1152.66 2621.03,1158.72 2631.50,1177.00
             2635.62,1184.18 2639.14,1186.15 2642.69,1194.00
             2647.14,1203.85 2651.88,1233.41 2653.17,1245.00
             2653.94,1251.84 2655.90,1256.01 2656.04,1264.00
             2656.04,1264.00 2656.04,1278.00 2656.04,1278.00
             2656.04,1278.00 2657.00,1288.00 2657.00,1288.00
             2657.09,1296.69 2655.40,1305.39 2654.28,1314.00
             2654.28,1314.00 2650.50,1338.00 2650.50,1338.00
             2650.50,1338.00 2639.69,1373.00 2639.69,1373.00
             2639.69,1373.00 2636.48,1384.00 2636.48,1384.00
             2636.48,1384.00 2625.91,1412.00 2625.91,1412.00
             2623.86,1417.46 2624.52,1418.76 2623.40,1423.00
             2623.40,1423.00 2617.07,1442.00 2617.07,1442.00
             2613.68,1450.38 2608.02,1458.50 2603.10,1466.00
             2603.10,1466.00 2592.23,1484.00 2592.23,1484.00
             2592.23,1484.00 2571.00,1511.91 2571.00,1511.91
             2571.00,1511.91 2563.28,1520.01 2563.28,1520.01
             2563.28,1520.01 2552.54,1532.83 2552.54,1532.83
             2552.54,1532.83 2537.04,1548.04 2537.04,1548.04
             2537.04,1548.04 2529.39,1556.91 2529.39,1556.91
             2521.61,1565.65 2507.24,1569.19 2508.04,1589.00
             2508.50,1600.43 2514.15,1604.79 2516.18,1614.00
             2517.36,1619.34 2518.79,1632.77 2518.37,1638.00
             2518.37,1638.00 2517.00,1645.00 2517.00,1645.00
             2517.00,1645.00 2517.00,1652.00 2517.00,1652.00
             2517.00,1652.00 2513.65,1668.00 2513.65,1668.00
             2512.47,1672.54 2510.00,1675.91 2507.97,1680.00
             2507.97,1680.00 2504.36,1688.00 2504.36,1688.00
             2504.36,1688.00 2493.10,1705.83 2493.10,1705.83
             2493.10,1705.83 2481.70,1718.49 2481.70,1718.49
             2481.70,1718.49 2475.28,1724.09 2475.28,1724.09
             2475.28,1724.09 2462.91,1737.96 2462.91,1737.96
             2462.91,1737.96 2456.17,1744.17 2456.17,1744.17
             2456.17,1744.17 2445.00,1756.00 2445.00,1756.00
             2445.00,1756.00 2434.00,1766.04 2434.00,1766.04
             2419.67,1779.68 2403.66,1792.65 2384.00,1797.39
             2375.52,1799.43 2368.40,1792.54 2356.00,1793.04
             2344.38,1793.51 2333.83,1800.73 2330.22,1812.00
             2328.90,1816.14 2329.25,1818.02 2328.83,1822.00
             2328.23,1827.76 2327.09,1829.05 2327.00,1836.00
             2327.00,1836.00 2327.00,1864.00 2327.00,1864.00
             2326.99,1870.27 2325.99,1881.19 2323.91,1887.00
             2323.91,1887.00 2320.55,1895.00 2320.55,1895.00
             2320.55,1895.00 2318.06,1904.00 2318.06,1904.00
             2316.03,1909.69 2313.06,1914.65 2310.37,1920.00
             2303.45,1933.74 2295.60,1949.22 2285.48,1960.83
             2285.48,1960.83 2279.01,1967.04 2279.01,1967.04
             2279.01,1967.04 2270.91,1975.82 2270.91,1975.82
             2270.91,1975.82 2252.00,1991.51 2252.00,1991.51
             2252.00,1991.51 2235.00,2002.74 2235.00,2002.74
             2235.00,2002.74 2220.00,2014.28 2220.00,2014.28
             2206.23,2023.91 2188.65,2030.52 2173.00,2036.42
             2173.00,2036.42 2154.00,2043.45 2154.00,2043.45
             2154.00,2043.45 2135.00,2050.97 2135.00,2050.97
             2135.00,2050.97 2107.00,2058.67 2107.00,2058.67
             2107.00,2058.67 2095.00,2060.90 2095.00,2060.90
             2095.00,2060.90 2083.00,2064.57 2083.00,2064.57
             2077.02,2066.25 2063.09,2068.66 2057.00,2068.66
             2057.00,2068.66 2050.00,2068.04 2050.00,2068.04
             2045.43,2067.84 2043.78,2068.26 2039.00,2067.10
             2036.46,2066.48 2032.39,2065.30 2030.59,2063.35
             2030.59,2063.35 2025.01,2047.00 2025.01,2047.00
             2019.52,2036.02 2011.30,2030.15 1999.00,2030.00
             1992.60,2029.93 1987.01,2029.85 1981.00,2032.53
             1968.18,2038.23 1963.69,2052.83 1955.25,2062.83
             1951.25,2067.57 1945.80,2070.70 1941.00,2074.51
             1941.00,2074.51 1932.00,2082.38 1932.00,2082.38
             1922.97,2089.79 1921.09,2089.70 1912.00,2095.01
             1907.55,2097.61 1897.80,2103.67 1893.00,2104.42
             1886.83,2105.39 1877.78,2097.51 1873.00,2093.99
             1865.86,2088.72 1862.20,2083.42 1853.00,2080.93
             1834.65,2075.96 1810.80,2087.89 1812.09,2109.00
             1812.90,2122.18 1819.34,2131.33 1829.00,2139.82
             1829.00,2139.82 1839.59,2148.18 1839.59,2148.18
             1839.59,2148.18 1847.97,2164.00 1847.97,2164.00
             1850.07,2168.70 1855.89,2192.29 1856.70,2198.00
             1857.55,2203.96 1856.34,2203.95 1858.43,2213.00
             1858.43,2213.00 1865.49,2240.00 1865.49,2240.00
             1865.49,2240.00 1866.92,2250.00 1866.92,2250.00
             1866.92,2250.00 1877.00,2284.00 1877.00,2284.00
             1864.87,2286.44 1866.81,2287.18 1857.00,2290.94
             1857.00,2290.94 1817.00,2307.90 1817.00,2307.90
             1817.00,2307.90 1802.00,2313.40 1802.00,2313.40
             1799.77,2314.41 1796.88,2316.69 1794.41,2315.18
             1792.77,2314.17 1790.99,2309.83 1789.91,2308.00
             1789.91,2308.00 1780.22,2291.00 1780.22,2291.00
             1780.22,2291.00 1770.54,2274.00 1770.54,2274.00
             1770.54,2274.00 1766.68,2265.00 1766.68,2265.00
             1766.68,2265.00 1752.22,2239.00 1752.22,2239.00
             1752.22,2239.00 1731.18,2202.00 1731.18,2202.00
             1731.18,2202.00 1726.22,2191.00 1726.22,2191.00
             1726.22,2191.00 1720.87,2182.00 1720.87,2182.00
             1720.87,2182.00 1715.49,2171.00 1715.49,2171.00
             1715.49,2171.00 1709.87,2162.00 1709.87,2162.00
             1709.87,2162.00 1703.13,2149.00 1703.13,2149.00
             1703.13,2149.00 1689.03,2127.00 1689.03,2127.00
             1689.03,2127.00 1680.79,2112.00 1680.79,2112.00
             1680.79,2112.00 1676.68,2102.00 1676.68,2102.00
             1676.68,2102.00 1671.31,2093.00 1671.31,2093.00
             1671.31,2093.00 1664.53,2080.00 1664.53,2080.00
             1664.53,2080.00 1659.40,2072.00 1659.40,2072.00
             1659.40,2072.00 1655.65,2062.00 1655.65,2062.00
             1655.65,2062.00 1650.66,2053.00 1650.66,2053.00
             1650.66,2053.00 1647.22,2045.00 1647.22,2045.00
             1647.22,2045.00 1636.75,2025.00 1636.75,2025.00
             1636.75,2025.00 1633.55,2016.00 1633.55,2016.00
             1633.55,2016.00 1629.17,2007.00 1629.17,2007.00
             1629.17,2007.00 1625.55,1997.00 1625.55,1997.00
             1625.55,1997.00 1622.22,1989.00 1622.22,1989.00
             1619.20,1979.29 1618.95,1966.96 1624.20,1958.00
             1625.62,1955.57 1627.81,1952.58 1630.17,1951.01
             1632.72,1949.30 1635.09,1949.16 1638.00,1948.73
             1648.39,1947.20 1655.04,1948.02 1664.00,1953.97
             1670.05,1958.00 1672.83,1961.38 1678.00,1965.68
             1686.14,1972.45 1704.73,1985.99 1714.00,1990.63
             1721.09,1994.17 1734.13,1998.14 1742.00,1999.54
             1742.00,1999.54 1749.00,2000.21 1749.00,2000.21
             1756.33,2001.27 1760.79,2004.65 1772.00,2002.53
             1785.53,1999.98 1796.54,1988.13 1801.97,1976.00
             1801.97,1976.00 1805.08,1966.00 1805.08,1966.00
             1806.54,1961.72 1808.03,1958.65 1808.70,1954.00
             1809.61,1947.68 1809.76,1934.64 1812.00,1929.00
             1821.14,1944.18 1830.77,1962.19 1843.17,1974.91
             1847.22,1979.07 1852.43,1982.09 1857.00,1985.67
             1865.08,1991.99 1864.84,1993.25 1875.00,1997.40
             1888.41,2002.88 1899.11,2006.14 1913.00,1999.19
             1919.56,1995.91 1923.93,1991.18 1928.99,1986.00
             1935.46,1979.36 1940.88,1972.16 1943.10,1963.00
             1944.53,1957.11 1943.62,1955.12 1944.17,1950.00
             1944.17,1950.00 1946.96,1935.00 1946.96,1935.00
             1946.96,1935.00 1945.00,1919.00 1945.00,1919.00
             1945.00,1919.00 1945.00,1910.00 1945.00,1910.00
             1945.00,1910.00 1940.43,1882.00 1940.43,1882.00
             1940.43,1882.00 1937.83,1853.00 1937.83,1853.00
             1937.83,1853.00 1935.30,1840.00 1935.30,1840.00
             1935.30,1840.00 1933.83,1820.00 1933.83,1820.00
             1933.83,1820.00 1931.37,1810.00 1931.37,1810.00
             1931.37,1810.00 1930.00,1792.00 1930.00,1792.00
             1944.30,1801.93 1952.17,1810.97 1971.00,1811.00
             1971.00,1811.00 1987.00,1811.00 1987.00,1811.00
             1997.28,1810.95 2007.22,1806.42 2014.96,1799.68
             2014.96,1799.68 2021.17,1793.17 2021.17,1793.17
             2021.17,1793.17 2030.82,1784.00 2030.82,1784.00
             2037.43,1776.48 2040.91,1764.91 2041.00,1755.00
             2041.00,1755.00 2054.00,1755.96 2054.00,1755.96
             2065.32,1756.44 2074.50,1752.01 2081.47,1743.00
             2085.11,1738.30 2085.47,1735.65 2088.00,1731.00
             2096.34,1745.28 2107.34,1746.71 2122.00,1750.37
             2128.89,1752.10 2141.10,1755.31 2148.00,1754.82
             2168.26,1753.37 2178.74,1742.82 2191.42,1728.00
             2199.13,1718.99 2205.85,1709.30 2206.00,1697.00
             2206.00,1697.00 2206.00,1682.00 2206.00,1682.00
             2205.98,1671.10 2202.38,1660.53 2199.88,1650.00
             2199.88,1650.00 2196.63,1635.00 2196.63,1635.00
             2196.63,1635.00 2189.06,1601.00 2189.06,1601.00
             2189.06,1601.00 2189.06,1590.00 2189.06,1590.00
             2188.35,1585.00 2186.81,1578.90 2187.09,1574.00
             2187.58,1565.47 2189.95,1543.13 2193.26,1536.00
             2194.99,1532.26 2196.87,1527.13 2201.02,1525.60
             2205.69,1523.88 2211.99,1527.64 2216.00,1529.86
             2224.39,1534.51 2235.79,1540.65 2245.00,1543.12
             2255.45,1545.91 2278.05,1548.27 2288.00,1544.05
             2293.37,1541.77 2296.27,1538.52 2300.28,1534.58
             2300.28,1534.58 2306.67,1528.00 2306.67,1528.00
             2306.67,1528.00 2322.01,1505.00 2322.01,1505.00
             2322.01,1505.00 2324.95,1497.00 2324.95,1497.00
             2327.42,1491.23 2329.94,1490.07 2332.00,1483.00
             2337.40,1482.15 2338.19,1481.29 2343.00,1479.91
             2343.00,1479.91 2361.00,1474.54 2361.00,1474.54
             2374.73,1469.16 2391.60,1455.04 2399.96,1443.00
             2405.74,1434.68 2405.89,1431.38 2409.52,1423.00
             2411.28,1418.94 2413.28,1416.81 2414.78,1412.00
             2414.78,1412.00 2416.66,1402.00 2416.66,1402.00
             2421.07,1380.96 2420.97,1376.11 2421.00,1355.00
             2421.01,1346.39 2421.69,1348.09 2422.70,1341.00
             2422.70,1341.00 2423.46,1331.00 2423.46,1331.00
             2423.46,1331.00 2430.11,1305.00 2430.11,1305.00
             2430.11,1305.00 2432.28,1292.00 2432.28,1292.00
             2432.28,1292.00 2436.43,1271.00 2436.43,1271.00
             2437.31,1265.06 2438.93,1260.05 2439.00,1254.00
             2439.10,1245.10 2439.39,1236.43 2433.47,1229.04
             2426.51,1220.34 2412.01,1217.29 2402.00,1222.05
             2395.96,1224.92 2390.77,1231.10 2387.81,1237.00
             2387.81,1237.00 2377.45,1270.00 2377.45,1270.00
             2377.45,1270.00 2372.23,1281.00 2372.23,1281.00
             2369.80,1287.69 2369.90,1291.87 2368.40,1298.00
             2368.40,1298.00 2363.45,1317.00 2363.45,1317.00
             2363.45,1317.00 2361.54,1332.00 2361.54,1332.00
             2360.26,1339.26 2359.04,1346.59 2359.00,1354.00
             2358.95,1365.19 2356.49,1388.83 2350.30,1398.00
             2344.64,1406.39 2339.39,1406.82 2331.00,1409.52
             2319.61,1413.18 2313.25,1413.65 2302.00,1419.37
             2295.23,1422.82 2285.18,1429.85 2280.79,1436.00
             2275.38,1443.57 2272.78,1452.66 2268.95,1461.00
             2266.35,1466.65 2264.06,1467.55 2262.00,1474.00
             2241.40,1467.50 2232.10,1451.74 2209.00,1452.00
             2209.00,1452.00 2182.00,1455.55 2182.00,1455.55
             2166.69,1460.94 2155.94,1473.19 2146.86,1486.00
             2144.50,1489.33 2139.06,1497.51 2137.53,1501.00
             2137.53,1501.00 2134.65,1510.00 2134.65,1510.00
             2134.65,1510.00 2130.89,1522.00 2130.89,1522.00
             2130.89,1522.00 2128.36,1534.00 2128.36,1534.00
             2126.98,1539.11 2124.75,1543.65 2124.17,1549.00
             2123.32,1556.95 2125.13,1562.54 2124.82,1567.00
             2123.33,1587.92 2124.87,1589.18 2127.70,1609.00
             2127.70,1609.00 2128.30,1619.00 2128.30,1619.00
             2128.30,1619.00 2131.61,1635.00 2131.61,1635.00
             2131.61,1635.00 2142.00,1681.00 2142.00,1681.00
             2131.27,1680.72 2134.37,1676.94 2130.88,1668.00
             2129.55,1664.58 2127.02,1660.82 2124.68,1658.00
             2115.37,1646.81 2104.15,1635.54 2089.00,1633.15
             2089.00,1633.15 2077.00,1633.15 2077.00,1633.15
             2060.56,1633.20 2041.90,1645.22 2034.89,1660.00
             2032.90,1664.19 2031.08,1669.51 2029.88,1674.00
             2029.20,1676.57 2028.51,1680.59 2026.49,1682.40
             2024.29,1684.38 2019.94,1683.94 2017.00,1684.46
             2013.28,1685.12 2003.24,1687.84 2000.00,1689.40
             1992.47,1693.03 1982.90,1706.25 1980.25,1714.00
             1979.05,1717.50 1977.04,1732.96 1977.00,1737.00
             1969.37,1734.56 1968.27,1726.12 1961.54,1718.00
             1958.02,1713.77 1955.81,1712.45 1952.00,1708.91
             1940.86,1698.55 1930.17,1690.39 1914.00,1691.04
             1903.74,1691.45 1892.74,1697.73 1886.79,1706.00
             1884.33,1709.42 1881.70,1715.10 1879.75,1719.00
             1874.29,1729.92 1871.91,1735.76 1870.13,1748.00
             1868.32,1760.50 1864.71,1770.69 1865.01,1784.00
             1865.01,1784.00 1866.40,1798.00 1866.40,1798.00
             1866.40,1798.00 1866.40,1807.00 1866.40,1807.00
             1866.40,1807.00 1868.08,1824.00 1868.08,1824.00
             1868.08,1824.00 1872.55,1843.00 1872.55,1843.00
             1872.55,1843.00 1877.00,1883.00 1877.00,1883.00
             1877.22,1902.53 1879.87,1900.56 1881.00,1914.00
             1872.70,1909.36 1867.13,1889.81 1863.77,1881.00
             1858.73,1867.81 1844.78,1846.21 1834.00,1837.33
             1828.72,1832.97 1815.90,1827.77 1809.00,1828.10
             1805.01,1828.30 1801.78,1829.63 1798.00,1830.50
             1793.32,1831.57 1790.54,1831.47 1786.00,1833.91
             1780.83,1836.70 1772.17,1845.47 1768.18,1850.00
             1751.70,1868.75 1746.12,1904.64 1745.00,1929.00
             1720.71,1922.46 1717.09,1910.92 1699.00,1897.78
             1693.10,1893.50 1678.62,1884.47 1672.00,1882.09
             1658.37,1877.18 1646.18,1876.84 1632.00,1877.00
             1626.41,1877.07 1626.08,1877.59 1621.00,1878.54
             1607.27,1881.11 1603.35,1883.00 1592.00,1891.53
             1592.00,1891.53 1586.00,1896.18 1586.00,1896.18
             1582.85,1898.96 1578.68,1904.91 1574.00,1903.58
             1571.51,1902.88 1562.36,1896.27 1560.00,1894.39
             1552.66,1888.51 1546.54,1882.79 1540.04,1876.00
             1540.04,1876.00 1530.00,1865.32 1530.00,1865.32
             1518.13,1855.13 1509.35,1841.63 1500.22,1829.00
             1500.22,1829.00 1494.60,1822.00 1494.60,1822.00
             1494.60,1822.00 1475.25,1795.00 1475.25,1795.00
             1475.25,1795.00 1460.33,1775.00 1460.33,1775.00
             1460.33,1775.00 1453.61,1767.00 1453.61,1767.00
             1453.61,1767.00 1447.22,1757.00 1447.22,1757.00
             1447.22,1757.00 1440.23,1748.00 1440.23,1748.00
             1440.23,1748.00 1423.14,1718.00 1423.14,1718.00
             1416.46,1705.88 1410.84,1700.27 1407.00,1686.00
             1417.99,1686.14 1419.25,1692.75 1430.00,1700.28
             1430.00,1700.28 1443.00,1708.21 1443.00,1708.21
             1443.00,1708.21 1456.00,1718.21 1456.00,1718.21
             1456.00,1718.21 1465.00,1723.60 1465.00,1723.60
             1471.48,1727.93 1478.35,1733.97 1486.00,1736.07
             1486.00,1736.07 1514.00,1739.17 1514.00,1739.17
             1534.13,1741.18 1539.75,1738.92 1555.00,1725.17
             1559.34,1721.26 1562.17,1719.41 1565.09,1714.00
             1568.10,1708.41 1568.11,1702.06 1569.50,1696.00
             1571.11,1688.98 1573.26,1684.57 1572.96,1677.00
             1572.96,1677.00 1571.44,1667.00 1571.44,1667.00
             1571.44,1667.00 1570.54,1659.00 1570.54,1659.00
             1570.54,1659.00 1563.28,1632.00 1563.28,1632.00
             1563.28,1632.00 1558.51,1616.00 1558.51,1616.00
             1556.29,1605.39 1554.05,1588.77 1554.00,1578.00
             1554.00,1578.00 1552.78,1563.00 1552.78,1563.00
             1552.78,1563.00 1552.78,1543.00 1552.78,1543.00
             1552.78,1543.00 1554.00,1525.00 1554.00,1525.00
             1554.07,1509.54 1556.20,1505.43 1560.08,1491.00
             1561.75,1484.79 1561.54,1481.32 1564.31,1475.00
             1566.62,1469.73 1570.52,1455.25 1578.01,1456.96
             1588.46,1459.34 1593.71,1471.32 1597.69,1480.00
             1597.69,1480.00 1606.54,1500.00 1606.54,1500.00
             1606.54,1500.00 1609.33,1508.00 1609.33,1508.00
             1609.33,1508.00 1618.55,1529.00 1618.55,1529.00
             1618.55,1529.00 1625.90,1547.00 1625.90,1547.00
             1625.90,1547.00 1631.63,1557.00 1631.63,1557.00
             1631.63,1557.00 1638.31,1571.00 1638.31,1571.00
             1642.87,1579.31 1646.74,1584.59 1652.49,1592.00
             1662.56,1604.98 1666.16,1609.42 1680.00,1619.02
             1682.87,1621.02 1685.91,1623.43 1689.00,1625.01
             1697.86,1629.51 1710.18,1633.64 1720.00,1635.25
             1720.00,1635.25 1733.00,1637.23 1733.00,1637.23
             1743.17,1639.59 1753.46,1642.87 1764.00,1643.00
             1776.74,1643.15 1786.98,1640.32 1799.00,1636.33
             1812.94,1631.71 1820.35,1630.91 1829.71,1618.00
             1831.44,1615.60 1833.70,1612.60 1835.00,1610.00
             1839.00,1602.00 1841.79,1580.98 1840.83,1572.00
             1840.16,1565.75 1835.60,1548.34 1833.49,1542.00
             1828.61,1527.37 1831.35,1531.57 1828.84,1522.00
             1826.34,1512.42 1823.06,1505.10 1821.85,1495.00
             1821.11,1488.88 1819.35,1481.41 1826.02,1477.70
             1830.90,1474.99 1837.73,1481.92 1841.00,1485.04
             1848.20,1491.91 1868.69,1509.00 1877.00,1513.45
             1883.57,1516.97 1900.35,1518.99 1908.00,1519.00
             1918.61,1519.02 1928.07,1517.61 1937.00,1511.21
             1944.13,1506.11 1949.14,1496.78 1952.88,1489.00
             1956.74,1480.99 1959.98,1474.87 1962.10,1466.00
             1962.10,1466.00 1964.29,1449.00 1964.29,1449.00
             1964.29,1449.00 1966.00,1439.00 1966.00,1439.00
             1979.96,1443.70 1990.86,1452.95 2004.00,1456.10
             2017.91,1459.43 2042.03,1452.18 2051.91,1441.96
             2058.03,1435.63 2060.82,1428.96 2064.00,1421.00
             2074.51,1423.13 2088.71,1434.70 2099.00,1439.05
             2105.46,1441.78 2113.09,1440.92 2120.00,1441.00
             2120.00,1441.00 2137.00,1442.82 2137.00,1442.82
             2137.00,1442.82 2152.00,1441.54 2152.00,1441.54
             2160.29,1440.04 2180.28,1432.02 2187.00,1427.21
             2190.53,1424.69 2193.92,1421.09 2197.00,1418.00
             2204.32,1410.67 2210.39,1404.11 2209.90,1393.00
             2209.30,1379.54 2202.65,1360.62 2194.47,1350.00
             2186.18,1339.24 2180.83,1337.41 2172.34,1323.00
             2172.34,1323.00 2157.54,1289.00 2157.54,1289.00
             2157.54,1289.00 2150.98,1277.00 2150.98,1277.00
             2146.51,1267.84 2142.39,1257.65 2139.08,1248.00
             2139.08,1248.00 2135.32,1234.00 2135.32,1234.00
             2135.32,1234.00 2134.00,1224.00 2134.00,1224.00
             2147.30,1227.17 2142.68,1234.46 2156.00,1252.00
             2165.98,1265.15 2181.76,1283.77 2197.00,1290.47
             2197.00,1290.47 2207.00,1293.52 2207.00,1293.52
             2213.73,1295.70 2215.57,1296.91 2223.00,1297.00
             2231.87,1297.10 2241.41,1295.88 2249.00,1290.89
             2257.58,1285.25 2260.39,1278.76 2264.64,1270.00
             2264.64,1270.00 2270.05,1260.00 2270.05,1260.00
             2272.57,1254.05 2275.92,1235.60 2276.00,1229.00
             2276.00,1229.00 2271.04,1194.00 2271.04,1194.00
             2270.91,1190.60 2272.08,1175.99 2273.95,1173.70
             2275.78,1171.48 2282.12,1170.38 2285.00,1169.58
             2285.00,1169.58 2310.00,1162.10 2310.00,1162.10
             2319.32,1157.87 2332.08,1144.58 2337.66,1136.00
             2344.85,1124.93 2344.54,1113.57 2342.56,1101.00
             2341.73,1095.74 2341.07,1094.80 2341.00,1089.00
             2341.00,1089.00 2341.00,1078.00 2341.00,1078.00
             2341.01,1073.33 2341.48,1066.37 2343.65,1062.18
             2345.60,1058.40 2349.70,1057.16 2353.82,1052.91
             2359.01,1047.56 2370.96,1034.59 2374.96,1029.00
             2386.01,1013.55 2384.36,1012.55 2391.00,997.00
             2398.93,978.44 2405.52,960.46 2405.99,940.00
             2406.66,910.04 2370.91,899.80 2355.04,922.00
             2349.65,929.55 2346.84,941.11 2343.45,950.00
             2343.45,950.00 2333.37,971.00 2333.37,971.00
             2333.37,971.00 2326.73,986.00 2326.73,986.00
             2322.75,992.94 2305.99,1005.05 2299.46,1013.00
             2291.84,1022.28 2284.09,1036.17 2281.67,1048.00
             2281.67,1048.00 2279.83,1068.00 2279.83,1068.00
             2279.83,1068.00 2278.04,1079.00 2278.04,1079.00
             2278.04,1079.00 2279.07,1094.00 2279.07,1094.00
             2279.35,1095.92 2280.10,1098.65 2279.07,1100.35
             2277.37,1102.76 2273.55,1102.81 2271.00,1103.07
             2266.93,1103.49 2259.10,1105.48 2255.00,1106.64
             2249.72,1108.14 2248.57,1109.46 2244.00,1111.88
             2234.11,1117.13 2225.60,1122.07 2219.47,1132.00
             2216.91,1136.15 2212.00,1147.27 2211.30,1152.00
             2211.30,1152.00 2210.71,1160.00 2210.71,1160.00
             2209.33,1170.57 2209.13,1169.90 2209.00,1181.00
             2209.00,1181.00 2208.18,1193.00 2208.18,1193.00
             2208.58,1198.60 2211.40,1209.06 2210.00,1214.00
             2210.00,1214.00 2198.26,1195.00 2198.26,1195.00
             2192.82,1184.41 2190.87,1176.34 2180.00,1169.10
             2169.75,1162.28 2151.41,1154.15 2139.00,1154.00
             2139.00,1154.00 2119.00,1154.00 2119.00,1154.00
             2105.41,1154.02 2099.41,1158.40 2090.01,1168.00
             2073.33,1185.05 2069.73,1199.86 2070.00,1223.00
             2070.08,1229.64 2072.62,1239.23 2074.00,1246.00
             2078.41,1267.67 2084.82,1287.17 2094.81,1307.00
             2094.81,1307.00 2101.19,1318.00 2101.19,1318.00
             2101.19,1318.00 2109.77,1337.00 2109.77,1337.00
             2109.77,1337.00 2113.32,1347.00 2113.32,1347.00
             2113.32,1347.00 2126.00,1371.00 2126.00,1371.00
             2126.00,1371.00 2118.00,1369.32 2118.00,1369.32
             2101.17,1363.43 2078.14,1340.05 2053.00,1339.04
             2040.59,1338.54 2035.28,1343.69 2027.00,1352.00
             2023.18,1355.83 2020.64,1358.26 2017.88,1363.00
             2017.88,1363.00 2011.98,1376.00 2011.98,1376.00
             2011.16,1377.87 2010.07,1380.68 2007.79,1381.13
             2005.63,1381.55 2002.80,1379.49 2001.00,1378.45
             2001.00,1378.45 1987.00,1369.90 1987.00,1369.90
             1976.41,1364.12 1966.60,1363.98 1955.00,1364.00
             1935.52,1364.03 1924.65,1373.82 1915.14,1390.00
             1913.40,1392.96 1911.37,1395.78 1910.12,1399.00
             1910.12,1399.00 1899.00,1446.00 1899.00,1446.00
             1889.11,1440.91 1882.39,1432.33 1873.99,1425.32
             1873.99,1425.32 1867.00,1420.41 1867.00,1420.41
             1852.83,1410.17 1846.84,1406.60 1829.00,1404.29
             1821.80,1403.35 1804.23,1407.51 1798.00,1411.10
             1792.60,1414.22 1790.47,1416.95 1786.00,1420.68
             1775.33,1429.57 1778.63,1425.99 1769.69,1437.00
             1761.13,1447.54 1757.02,1451.94 1757.00,1466.00
             1756.98,1479.64 1757.23,1493.53 1759.61,1507.00
             1759.61,1507.00 1762.72,1520.00 1762.72,1520.00
             1762.72,1520.00 1765.92,1537.00 1765.92,1537.00
             1765.92,1537.00 1770.70,1549.00 1770.70,1549.00
             1770.70,1549.00 1776.00,1570.00 1776.00,1570.00
             1762.74,1575.64 1757.30,1571.95 1744.00,1568.89
             1744.00,1568.89 1718.00,1562.79 1718.00,1562.79
             1703.47,1556.15 1696.56,1543.62 1689.75,1530.00
             1689.75,1530.00 1682.10,1513.00 1682.10,1513.00
             1682.10,1513.00 1677.13,1504.00 1677.13,1504.00
             1677.13,1504.00 1673.08,1493.00 1673.08,1493.00
             1673.08,1493.00 1667.60,1481.00 1667.60,1481.00
             1667.60,1481.00 1663.08,1468.00 1663.08,1468.00
             1655.94,1449.98 1647.59,1430.73 1634.68,1416.04
             1631.80,1412.77 1625.69,1408.43 1622.00,1405.27
             1615.66,1399.84 1608.39,1391.08 1601.00,1388.21
             1588.08,1383.18 1581.96,1385.85 1569.00,1386.00
             1563.40,1386.07 1563.08,1386.59 1558.00,1387.54
             1543.20,1390.31 1541.67,1390.42 1530.00,1400.84
             1526.29,1404.15 1523.81,1405.79 1520.79,1410.00
             1517.01,1415.25 1512.91,1426.57 1509.97,1433.00
             1503.05,1448.17 1500.05,1451.43 1497.91,1469.00
             1497.91,1469.00 1493.46,1485.00 1493.46,1485.00
             1493.46,1485.00 1492.71,1496.00 1492.71,1496.00
             1492.71,1496.00 1490.27,1510.00 1490.27,1510.00
             1487.94,1525.83 1488.02,1530.34 1488.00,1546.00
             1488.00,1546.00 1486.08,1564.00 1486.08,1564.00
             1486.07,1570.84 1488.75,1577.33 1489.89,1584.00
             1489.89,1584.00 1489.89,1594.00 1489.89,1594.00
             1489.89,1594.00 1492.80,1616.00 1492.80,1616.00
             1492.80,1616.00 1498.44,1640.00 1498.44,1640.00
             1498.44,1640.00 1501.37,1648.00 1501.37,1648.00
             1501.37,1648.00 1503.66,1660.00 1503.66,1660.00
             1504.77,1664.43 1505.49,1665.07 1506.00,1670.00
             1495.20,1668.04 1474.71,1653.48 1467.77,1645.00
             1467.77,1645.00 1457.68,1630.04 1457.68,1630.04
             1457.68,1630.04 1450.00,1622.93 1450.00,1622.93
             1439.55,1613.44 1437.64,1611.55 1424.00,1608.13
             1424.00,1608.13 1415.00,1606.17 1415.00,1606.17
             1402.53,1604.86 1390.12,1611.63 1379.00,1616.28
             1379.00,1616.28 1372.00,1618.55 1372.00,1618.55
             1368.44,1619.82 1366.99,1621.05 1363.00,1621.83
             1363.00,1621.83 1343.00,1624.61 1343.00,1624.61
             1343.00,1624.61 1319.00,1629.38 1319.00,1629.38
             1319.00,1629.38 1308.00,1632.79 1308.00,1632.79
             1308.00,1632.79 1295.00,1634.00 1295.00,1634.00
             1282.55,1634.14 1281.98,1635.36 1271.00,1636.71
             1271.00,1636.71 1260.00,1637.30 1260.00,1637.30
             1260.00,1637.30 1252.00,1638.96 1252.00,1638.96
             1252.00,1638.96 1244.00,1638.96 1244.00,1638.96
             1244.00,1638.96 1234.00,1640.00 1234.00,1640.00
             1234.00,1640.00 1211.00,1640.00 1211.00,1640.00
             1211.00,1640.00 1190.00,1638.71 1190.00,1638.71
             1190.00,1638.71 1176.00,1636.17 1176.00,1636.17
             1176.00,1636.17 1141.00,1632.35 1141.00,1632.35
             1141.00,1632.35 1133.00,1628.61 1133.00,1628.61
             1126.95,1626.20 1127.17,1627.54 1119.00,1623.22
             1119.00,1623.22 1108.00,1616.95 1108.00,1616.95
             1108.00,1616.95 1088.00,1610.82 1088.00,1610.82
             1088.00,1610.82 1080.00,1606.37 1080.00,1606.37
             1080.00,1606.37 1069.00,1601.31 1069.00,1601.31
             1069.00,1601.31 1058.00,1597.16 1058.00,1597.16
             1058.00,1597.16 1036.00,1584.82 1036.00,1584.82
             1036.00,1584.82 1023.00,1579.87 1023.00,1579.87
             1005.09,1571.18 978.81,1555.25 963.17,1543.10
             963.17,1543.10 955.99,1536.51 955.99,1536.51
             955.99,1536.51 933.10,1516.99 933.10,1516.99
             929.70,1513.32 929.14,1511.46 926.47,1508.00
             926.47,1508.00 919.78,1500.00 919.78,1500.00
             912.98,1490.60 905.89,1473.29 902.78,1462.00
             902.78,1462.00 901.33,1449.00 901.33,1449.00
             899.05,1438.31 898.20,1443.20 896.83,1429.00
             896.83,1429.00 896.18,1423.00 896.18,1423.00
             896.18,1423.00 897.32,1406.00 897.32,1406.00
             898.82,1396.84 901.93,1391.26 900.83,1381.00
             900.32,1376.27 895.48,1357.39 893.48,1353.00
             893.48,1353.00 880.55,1327.00 880.55,1327.00
             873.73,1308.11 875.22,1298.06 875.00,1279.00
             875.00,1279.00 873.18,1263.00 873.18,1263.00
             873.18,1263.00 873.18,1244.00 873.18,1244.00
             873.00,1239.72 874.41,1236.18 874.83,1232.00
             874.83,1232.00 877.37,1211.00 877.37,1211.00
             877.37,1211.00 879.53,1203.00 879.53,1203.00
             879.53,1203.00 881.26,1191.00 881.26,1191.00
             883.16,1180.80 886.37,1169.67 890.12,1160.00
             890.12,1160.00 896.69,1147.00 896.69,1147.00
             898.46,1143.05 899.11,1138.69 901.42,1135.00
             905.02,1129.25 907.54,1127.51 911.92,1122.96
             914.68,1120.08 916.87,1116.91 920.01,1114.39
             923.28,1111.76 928.22,1109.77 932.00,1107.69
             932.00,1107.69 942.00,1101.82 942.00,1101.82
             952.97,1096.49 964.12,1095.86 976.00,1096.00
             982.66,1096.08 992.18,1099.45 998.00,1102.72
             998.00,1102.72 1005.00,1107.09 1005.00,1107.09
             1005.00,1107.09 1016.00,1111.52 1016.00,1111.52
             1027.68,1117.85 1033.10,1122.76 1041.54,1133.00
             1041.54,1133.00 1062.49,1156.28 1062.49,1156.28
             1062.49,1156.28 1068.09,1163.00 1068.09,1163.00
             1068.09,1163.00 1076.56,1172.00 1076.56,1172.00
             1076.56,1172.00 1085.33,1184.00 1085.33,1184.00
             1085.33,1184.00 1094.83,1194.00 1094.83,1194.00
             1101.54,1201.42 1105.13,1206.67 1113.00,1213.91
             1113.00,1213.91 1123.00,1221.52 1123.00,1221.52
             1123.00,1221.52 1131.00,1228.47 1131.00,1228.47
             1131.00,1228.47 1138.00,1233.37 1138.00,1233.37
             1138.00,1233.37 1155.00,1246.30 1155.00,1246.30
             1155.00,1246.30 1166.00,1252.70 1166.00,1252.70
             1171.17,1256.02 1176.39,1260.60 1182.00,1262.91
             1193.06,1267.45 1202.38,1267.87 1214.00,1268.00
             1214.00,1268.00 1227.00,1269.00 1227.00,1269.00
             1227.00,1269.00 1251.00,1269.00 1251.00,1269.00
             1265.97,1268.93 1274.92,1261.84 1283.42,1250.00
             1286.26,1246.04 1288.78,1242.65 1290.45,1238.00
             1293.92,1228.38 1295.12,1213.26 1295.00,1203.00
             1295.00,1203.00 1294.09,1193.00 1294.09,1193.00
             1294.09,1193.00 1293.00,1170.00 1293.00,1170.00
             1292.92,1163.17 1291.08,1158.63 1290.13,1152.00
             1290.13,1152.00 1288.54,1137.00 1288.54,1137.00
             1288.54,1137.00 1283.21,1115.00 1283.21,1115.00
             1283.21,1115.00 1280.08,1099.00 1280.08,1099.00
             1280.08,1099.00 1273.29,1078.00 1273.29,1078.00
             1273.29,1078.00 1271.39,1066.00 1271.39,1066.00
             1271.39,1066.00 1268.46,1053.00 1268.46,1053.00
             1268.46,1053.00 1267.41,1043.00 1267.41,1043.00
             1267.41,1043.00 1264.30,1028.00 1264.30,1028.00
             1264.30,1028.00 1263.10,1011.00 1263.10,1011.00
             1263.10,1011.00 1264.92,995.00 1264.92,995.00
             1264.92,995.00 1263.71,980.00 1263.71,980.00
             1263.71,980.00 1265.00,970.00 1265.00,970.00
             1265.00,970.00 1265.00,961.00 1265.00,961.00
             1265.00,961.00 1268.63,944.00 1268.63,944.00
             1272.37,930.80 1277.04,917.96 1283.87,906.00
             1283.87,906.00 1289.54,897.00 1289.54,897.00
             1289.54,897.00 1300.79,874.00 1300.79,874.00
             1307.85,864.11 1317.39,856.65 1327.00,849.49
             1329.46,847.66 1331.12,845.94 1334.00,844.65
             1334.00,844.65 1343.00,842.09 1343.00,842.09
             1356.81,838.14 1355.62,838.84 1370.00,839.00
             1375.07,839.06 1390.43,841.35 1395.00,843.12
             1395.00,843.12 1402.00,846.60 1402.00,846.60
             1405.64,848.30 1409.77,848.50 1412.61,851.30
             1416.20,854.83 1418.65,862.32 1420.42,867.00
             1420.42,867.00 1428.71,890.00 1428.71,890.00
             1428.71,890.00 1432.92,909.00 1432.92,909.00
             1432.92,909.00 1437.40,922.00 1437.40,922.00
             1437.40,922.00 1439.91,934.00 1439.91,934.00
             1439.91,934.00 1444.11,947.00 1444.11,947.00
             1444.11,947.00 1447.70,964.00 1447.70,964.00
             1447.70,964.00 1448.30,972.00 1448.30,972.00
             1448.30,972.00 1450.55,982.00 1450.55,982.00
             1450.55,982.00 1452.45,993.00 1452.45,993.00
             1452.45,993.00 1456.25,1005.00 1456.25,1005.00
             1456.25,1005.00 1458.68,1017.00 1458.68,1017.00
             1458.68,1017.00 1461.37,1025.00 1461.37,1025.00
             1461.37,1025.00 1464.00,1041.00 1464.00,1041.00
             1464.00,1041.00 1473.09,1073.00 1473.09,1073.00
             1473.09,1073.00 1477.52,1082.00 1477.52,1082.00
             1485.40,1098.55 1494.95,1114.26 1507.18,1128.00
             1515.56,1137.40 1526.53,1143.88 1537.00,1150.54
             1537.00,1150.54 1561.00,1166.18 1561.00,1166.18
             1564.78,1168.02 1578.36,1171.25 1583.00,1172.20
             1588.43,1173.30 1595.92,1175.79 1601.00,1175.96
             1609.71,1176.25 1612.63,1173.44 1620.00,1170.45
             1625.93,1168.05 1628.61,1168.10 1634.00,1163.67
             1650.68,1149.97 1653.57,1137.63 1658.47,1118.00
             1658.47,1118.00 1663.71,1093.00 1663.71,1093.00
             1663.71,1093.00 1664.28,1085.00 1664.28,1085.00
             1664.28,1085.00 1666.00,1067.00 1666.00,1067.00
             1666.00,1067.00 1666.00,1022.00 1666.00,1022.00
             1666.00,1022.00 1665.01,1008.00 1665.01,1008.00
             1664.77,997.32 1668.70,991.39 1672.39,982.00
             1677.43,969.19 1676.98,956.34 1695.00,957.04
             1702.23,957.32 1719.41,960.15 1725.00,964.42
             1730.26,968.44 1734.98,976.38 1735.82,983.00
             1735.82,983.00 1736.67,992.00 1736.67,992.00
             1739.39,1005.31 1742.54,1018.68 1750.44,1030.00
             1756.96,1039.35 1769.71,1051.17 1780.00,1056.18
             1780.00,1056.18 1796.00,1061.49 1796.00,1061.49
             1801.67,1063.38 1811.30,1066.77 1817.00,1066.96
             1823.16,1067.16 1829.00,1065.14 1835.00,1064.08
             1835.00,1064.08 1859.00,1060.34 1859.00,1060.34
             1883.45,1055.03 1891.01,1028.00 1902.30,1009.00
             1908.00,999.41 1913.28,986.69 1927.00,988.22
             1927.00,988.22 1949.00,993.95 1949.00,993.95
             1949.00,993.95 1958.00,997.91 1958.00,997.91
             1958.00,997.91 1976.00,1002.35 1976.00,1002.35
             1991.82,1007.29 1996.66,1010.94 2014.00,1005.25
             2027.46,1000.84 2030.49,995.72 2039.17,986.00
             2039.17,986.00 2049.68,975.00 2049.68,975.00
             2049.68,975.00 2065.95,954.00 2065.95,954.00
             2074.36,944.39 2077.75,934.16 2093.00,935.09
             2093.00,935.09 2113.00,938.92 2113.00,938.92
             2118.37,940.34 2121.99,942.54 2128.00,942.91
             2132.34,943.17 2134.90,942.33 2139.00,941.42
             2163.15,936.10 2171.85,921.89 2191.00,911.31
             2204.15,904.04 2227.68,894.88 2236.21,883.00
             2241.28,875.94 2246.45,865.91 2245.91,857.00
             2244.86,839.93 2231.82,828.63 2215.00,829.01
             2204.43,829.26 2196.23,833.86 2187.00,838.22
             2187.00,838.22 2167.00,847.32 2167.00,847.32
             2167.00,847.32 2149.00,857.86 2149.00,857.86
             2144.39,860.57 2136.23,867.13 2132.00,868.35
             2127.52,869.65 2122.44,867.62 2118.00,866.66
             2112.05,865.37 2103.03,864.03 2097.00,864.00
             2079.48,863.92 2082.85,863.25 2066.00,867.72
             2059.69,869.39 2057.87,869.33 2052.00,873.09
             2036.23,883.18 2024.65,898.70 2012.92,913.00
             2009.41,917.29 1999.91,930.45 1994.99,931.74
             1991.94,932.54 1988.72,930.47 1986.00,929.33
             1986.00,929.33 1972.00,923.92 1972.00,923.92
             1956.89,917.86 1957.14,920.06 1944.00,916.96
             1937.44,915.41 1932.05,912.69 1925.00,913.09
             1916.76,913.56 1913.32,915.45 1906.00,917.78
             1906.00,917.78 1894.00,921.45 1894.00,921.45
             1878.35,927.83 1866.26,939.37 1856.72,953.00
             1844.58,970.34 1849.55,963.41 1840.75,981.00
             1837.36,987.78 1837.17,991.84 1829.00,992.00
             1822.53,992.12 1812.71,992.86 1807.34,988.93
             1804.21,986.64 1802.55,981.58 1801.35,978.00
             1801.35,978.00 1794.39,951.00 1794.39,951.00
             1787.99,934.66 1771.30,909.07 1756.00,900.51
             1740.33,891.75 1723.87,887.22 1706.00,885.91
             1702.58,885.66 1700.55,884.93 1697.00,885.18
             1685.92,885.97 1667.90,887.03 1658.00,891.52
             1654.79,892.97 1651.86,895.10 1649.00,897.14
             1634.15,907.73 1632.21,914.21 1622.95,929.00
             1619.50,934.50 1614.71,941.95 1612.55,948.00
             1612.55,948.00 1609.53,958.00 1609.53,958.00
             1609.53,958.00 1605.61,966.00 1605.61,966.00
             1601.30,976.83 1599.98,988.47 1600.00,1000.00
             1600.00,1000.00 1600.68,1013.00 1600.68,1013.00
             1600.68,1013.00 1600.00,1058.00 1600.00,1058.00
             1599.99,1067.45 1598.67,1078.70 1596.91,1088.00
             1596.91,1088.00 1594.00,1101.00 1594.00,1101.00
             1587.11,1100.27 1579.06,1095.44 1573.00,1092.00
             1565.57,1087.78 1558.13,1083.13 1552.21,1076.83
             1549.57,1074.03 1547.76,1070.24 1545.66,1067.00
             1540.97,1059.79 1536.63,1053.21 1533.70,1045.00
             1532.22,1040.87 1529.85,1032.28 1529.29,1028.00
             1529.29,1028.00 1528.53,1020.00 1528.53,1020.00
             1528.53,1020.00 1526.29,1012.00 1526.29,1012.00
             1526.29,1012.00 1523.63,1000.00 1523.63,1000.00
             1523.63,1000.00 1519.56,984.00 1519.56,984.00
             1519.56,984.00 1516.21,973.00 1516.21,973.00
             1516.21,973.00 1512.44,953.00 1512.44,953.00
             1512.44,953.00 1511.54,945.00 1511.54,945.00
             1511.54,945.00 1507.10,927.00 1507.10,927.00
             1507.10,927.00 1500.67,909.00 1500.67,909.00
             1500.67,909.00 1495.58,889.00 1495.58,889.00
             1495.58,889.00 1492.57,876.00 1492.57,876.00
             1492.57,876.00 1480.34,840.00 1480.34,840.00
             1476.99,830.41 1473.73,819.30 1467.96,811.00
             1460.38,800.09 1447.91,789.76 1436.00,783.81
             1436.00,783.81 1427.00,780.13 1427.00,780.13
             1427.00,780.13 1419.00,776.55 1419.00,776.55
             1419.00,776.55 1405.00,772.80 1405.00,772.80
             1394.28,769.52 1386.54,766.02 1375.00,766.00
             1375.00,766.00 1349.00,766.00 1349.00,766.00
             1339.60,766.01 1316.66,771.49 1308.00,775.35
             1295.40,780.96 1275.39,795.88 1266.09,806.00
             1266.09,806.00 1259.40,814.72 1259.40,814.72
             1253.91,821.28 1247.87,827.57 1243.48,835.00
             1243.48,835.00 1238.13,847.00 1238.13,847.00
             1238.13,847.00 1228.31,863.00 1228.31,863.00
             1228.31,863.00 1219.90,879.00 1219.90,879.00
             1219.90,879.00 1216.76,887.00 1216.76,887.00
             1216.76,887.00 1211.12,897.00 1211.12,897.00
             1211.12,897.00 1204.47,921.00 1204.47,921.00
             1204.47,921.00 1203.54,930.00 1203.54,930.00
             1203.54,930.00 1201.49,943.00 1201.49,943.00
             1199.82,951.08 1199.01,949.63 1198.96,959.00
             1198.96,959.00 1198.96,970.00 1198.96,970.00
             1198.96,970.00 1198.01,982.00 1198.01,982.00
             1198.01,982.00 1198.96,994.00 1198.96,994.00
             1198.96,994.00 1198.00,1005.00 1198.00,1005.00
             1198.00,1005.00 1199.00,1033.00 1199.00,1033.00
             1199.02,1043.40 1201.75,1053.80 1203.54,1064.00
             1203.54,1064.00 1204.67,1076.00 1204.67,1076.00
             1206.21,1083.23 1208.55,1085.57 1210.23,1091.00
             1210.23,1091.00 1215.67,1114.00 1215.67,1114.00
             1215.67,1114.00 1218.37,1122.00 1218.37,1122.00
             1218.37,1122.00 1219.67,1136.00 1219.67,1136.00
             1219.67,1136.00 1222.63,1147.00 1222.63,1147.00
             1222.63,1147.00 1223.46,1157.00 1223.46,1157.00
             1223.46,1157.00 1225.68,1166.00 1225.68,1166.00
             1227.42,1176.53 1228.00,1186.32 1228.00,1197.00
             1228.00,1197.00 1207.00,1195.39 1207.00,1195.39
             1193.02,1191.81 1179.89,1180.34 1169.00,1171.32
             1169.00,1171.32 1153.44,1159.70 1153.44,1159.70
             1153.44,1159.70 1134.91,1138.00 1134.91,1138.00
             1134.91,1138.00 1126.43,1129.83 1126.43,1129.83
             1126.43,1129.83 1117.68,1119.09 1117.68,1119.09
             1117.68,1119.09 1111.18,1112.91 1111.18,1112.91
             1111.18,1112.91 1103.54,1103.00 1103.54,1103.00
             1103.54,1103.00 1094.21,1093.00 1094.21,1093.00
             1094.21,1093.00 1088.47,1085.00 1088.47,1085.00
             1088.47,1085.00 1074.99,1070.09 1074.99,1070.09
             1069.39,1064.82 1066.11,1064.16 1060.00,1060.55
             1060.00,1060.55 1035.00,1045.69 1035.00,1045.69
             1035.00,1045.69 1015.00,1032.46 1015.00,1032.46
             1015.00,1032.46 1005.00,1027.74 1005.00,1027.74
             1001.87,1026.23 999.41,1024.85 996.00,1023.93
             990.49,1022.44 971.74,1022.92 965.00,1023.00
             965.00,1023.00 937.00,1025.83 937.00,1025.83
             929.93,1026.52 920.58,1026.54 914.00,1029.12
             908.86,1031.13 905.53,1034.81 901.00,1037.76
             894.86,1041.75 881.06,1050.69 876.00,1055.18
             868.86,1061.54 863.26,1069.46 857.50,1077.00
             846.76,1091.06 841.08,1099.67 833.86,1116.00
             833.86,1116.00 830.05,1126.00 830.05,1126.00
             827.53,1131.86 824.56,1134.87 822.44,1142.00
             822.44,1142.00 817.71,1169.00 817.71,1169.00
             817.71,1169.00 815.20,1184.00 815.20,1184.00
             815.20,1184.00 812.99,1194.00 812.99,1194.00
             812.99,1194.00 812.99,1202.00 812.99,1202.00
             811.67,1211.58 808.02,1215.06 808.00,1228.00
             808.00,1228.00 808.00,1251.00 808.00,1251.00
             808.00,1251.00 807.01,1268.00 807.01,1268.00
             807.01,1268.00 809.00,1286.00 809.00,1286.00
             809.00,1286.00 810.46,1314.00 810.46,1314.00
             810.46,1314.00 813.64,1325.00 813.64,1325.00
             813.64,1325.00 816.44,1338.00 816.44,1338.00
             816.44,1338.00 824.00,1358.00 824.00,1358.00
             824.00,1358.00 785.00,1355.83 785.00,1355.83
             785.00,1355.83 773.00,1354.00 773.00,1354.00
             773.00,1354.00 766.00,1354.00 766.00,1354.00
             766.00,1354.00 753.00,1351.17 753.00,1351.17
             753.00,1351.17 738.00,1351.91 738.00,1351.91
             738.00,1351.91 708.00,1347.54 708.00,1347.54
             708.00,1347.54 698.00,1345.30 698.00,1345.30
             698.00,1345.30 687.00,1344.56 687.00,1344.56
             687.00,1344.56 655.00,1337.67 655.00,1337.67
             655.00,1337.67 647.00,1336.40 647.00,1336.40
             647.00,1336.40 640.00,1334.45 640.00,1334.45
             640.00,1334.45 627.00,1332.33 627.00,1332.33
             627.00,1332.33 616.00,1329.46 616.00,1329.46
             616.00,1329.46 607.00,1328.22 607.00,1328.22
             607.00,1328.22 568.00,1311.91 568.00,1311.91
             568.00,1311.91 552.00,1306.69 552.00,1306.69
             552.00,1306.69 544.00,1302.93 544.00,1302.93
             544.00,1302.93 536.00,1299.88 536.00,1299.88
             536.00,1299.88 510.00,1286.04 510.00,1286.04
             510.00,1286.04 495.00,1275.69 495.00,1275.69
             495.00,1275.69 481.09,1266.96 481.09,1266.96
             481.09,1266.96 473.96,1260.52 473.96,1260.52
             473.96,1260.52 458.28,1248.49 458.28,1248.49
             458.28,1248.49 451.00,1241.33 451.00,1241.33
             451.00,1241.33 442.28,1235.37 442.28,1235.37
             442.28,1235.37 436.96,1230.16 436.96,1230.16
             436.96,1230.16 423.00,1217.91 423.00,1217.91
             423.00,1217.91 411.00,1206.17 411.00,1206.17
             411.00,1206.17 390.18,1188.83 390.18,1188.83
             390.18,1188.83 379.72,1176.00 379.72,1176.00
             379.72,1176.00 368.70,1163.00 368.70,1163.00
             368.70,1163.00 361.53,1155.00 361.53,1155.00
             361.53,1155.00 355.47,1146.00 355.47,1146.00
             355.47,1146.00 346.94,1136.00 346.94,1136.00
             346.94,1136.00 339.96,1124.00 339.96,1124.00
             339.96,1124.00 328.19,1110.72 328.19,1110.72
             328.19,1110.72 313.71,1082.00 313.71,1082.00
             306.27,1066.08 304.23,1061.37 301.45,1044.00
             300.70,1037.14 300.07,1036.48 301.45,1029.00
             302.77,1018.71 309.48,1018.17 315.70,1011.00
             315.70,1011.00 323.46,1001.00 323.46,1001.00
             323.46,1001.00 332.68,991.00 332.68,991.00
             332.68,991.00 338.50,983.00 338.50,983.00
             341.95,978.48 346.12,974.18 348.60,969.00
             351.30,963.37 350.37,961.12 351.37,956.00
             351.37,956.00 354.43,945.00 354.43,945.00
             354.43,945.00 359.52,930.00 359.52,930.00
             359.52,930.00 363.65,922.00 363.65,922.00
             363.65,922.00 366.46,914.00 366.46,914.00
             369.68,905.61 375.77,897.43 382.04,891.01
             384.49,888.50 395.16,879.75 398.00,878.30
             398.00,878.30 405.00,875.66 405.00,875.66
             405.00,875.66 412.00,872.55 412.00,872.55
             412.00,872.55 422.00,869.76 422.00,869.76
             422.00,869.76 429.00,866.85 429.00,866.85
             429.00,866.85 439.00,866.85 439.00,866.85
             443.23,866.20 447.79,864.74 452.00,865.53
             454.49,866.00 460.78,868.21 463.00,869.41
             463.00,869.41 489.00,889.08 489.00,889.08
             489.00,889.08 525.00,918.51 525.00,918.51
             525.00,918.51 533.00,925.47 533.00,925.47
             533.00,925.47 541.00,930.92 541.00,930.92
             541.00,930.92 551.00,938.90 551.00,938.90
             561.89,946.12 580.34,952.23 593.00,955.74
             600.66,957.87 608.04,960.68 616.00,961.71
             616.00,961.71 626.00,962.30 626.00,962.30
             633.96,963.43 641.91,964.90 650.00,965.00
             650.00,965.00 682.00,963.17 682.00,963.17
             688.00,962.57 693.37,962.31 699.00,959.60
             704.52,956.94 706.62,953.84 711.00,950.22
             716.03,946.07 720.16,946.16 726.00,943.94
             732.57,941.44 738.08,937.77 742.21,932.00
             748.00,923.91 748.27,916.65 751.63,909.00
             757.81,894.91 764.93,874.43 765.00,859.00
             765.00,859.00 765.00,849.00 765.00,849.00
             765.00,849.00 765.96,832.00 765.96,832.00
             765.96,832.00 759.84,796.00 759.84,796.00
             759.84,796.00 750.22,771.00 750.22,771.00
             750.22,771.00 743.60,758.00 743.60,758.00
             743.60,758.00 734.56,727.00 734.56,727.00
             734.56,727.00 730.70,717.00 730.70,717.00
             730.70,717.00 727.15,705.00 727.15,705.00
             724.31,694.51 725.70,696.99 724.83,688.00
             724.83,688.00 722.84,674.00 722.84,674.00
             721.49,663.73 719.94,666.31 720.00,653.00
             720.00,653.00 720.74,635.00 720.74,635.00
             720.74,635.00 722.11,616.00 722.11,616.00
             722.15,611.10 721.16,607.99 722.11,603.00
             722.11,603.00 725.46,594.00 725.46,594.00
             725.46,594.00 727.66,586.00 727.66,586.00
             727.66,586.00 731.68,578.00 731.68,578.00
             731.68,578.00 744.22,553.00 744.22,553.00
             744.22,553.00 749.66,541.00 749.66,541.00
             752.76,534.79 761.51,522.02 766.29,517.18
             766.29,517.18 791.00,497.86 791.00,497.86
             795.99,494.30 815.33,484.62 821.00,483.39
             828.86,481.69 848.23,481.98 857.00,482.00
             859.04,482.00 862.63,481.74 864.30,482.99
             866.18,484.40 867.26,488.77 867.69,491.00
             867.69,491.00 869.82,515.00 869.82,515.00
             869.20,523.69 868.46,532.76 865.46,541.00
             865.46,541.00 837.03,603.00 837.03,603.00
             837.03,603.00 833.11,618.00 833.11,618.00
             833.11,618.00 820.89,654.00 820.89,654.00
             818.11,665.16 815.02,690.62 815.00,702.00
             815.00,702.00 814.00,718.00 814.00,718.00
             814.00,718.00 816.83,752.00 816.83,752.00
             818.48,769.03 817.94,784.85 824.88,801.00
             828.88,810.32 837.85,820.88 845.00,828.00
             845.00,828.00 861.00,842.47 861.00,842.47
             861.00,842.47 869.00,847.78 869.00,847.78
             873.90,851.27 876.04,854.00 882.00,856.65
             885.51,858.21 891.13,859.41 895.00,860.37
             908.65,863.77 931.01,867.16 945.00,867.00
             956.40,866.86 965.52,861.14 975.00,855.45
             979.02,853.03 981.31,852.08 985.00,848.82
             989.39,844.92 993.86,839.16 996.69,834.00
             1001.28,825.63 1000.55,822.23 1002.76,814.00
             1006.25,800.99 1011.97,799.83 1012.00,782.00
             1012.00,782.00 1011.30,761.00 1011.30,761.00
             1011.30,761.00 1014.55,746.00 1014.55,746.00
             1014.55,746.00 1018.71,718.00 1018.71,718.00
             1018.71,718.00 1018.71,709.00 1018.71,709.00
             1018.71,709.00 1020.00,676.00 1020.00,676.00
             1020.00,676.00 1021.00,663.00 1021.00,663.00
             1021.00,663.00 1019.83,640.00 1019.83,640.00
             1019.83,640.00 1017.32,629.00 1017.32,629.00
             1017.32,629.00 1015.96,611.00 1015.96,611.00
             1015.96,611.00 1015.96,595.00 1015.96,595.00
             1015.96,595.00 1014.85,583.00 1014.85,583.00
             1014.85,583.00 1014.85,551.00 1014.85,551.00
             1014.85,551.00 1014.85,542.00 1014.85,542.00
             1014.85,542.00 1014.85,532.00 1014.85,532.00
             1014.85,532.00 1013.10,517.00 1013.10,517.00
             1013.10,517.00 1014.83,504.00 1014.83,504.00
             1017.88,472.68 1023.99,453.74 1032.08,424.00
             1032.08,424.00 1046.95,377.00 1046.95,377.00
             1046.95,377.00 1054.14,363.00 1054.14,363.00
             1059.20,351.56 1059.02,344.69 1070.00,336.42
             1074.49,333.03 1084.44,330.16 1090.00,328.57
             1113.10,321.98 1112.46,322.88 1136.00,323.00
             1143.13,323.04 1153.63,326.89 1161.00,329.00
             1161.00,329.00 1177.00,332.63 1177.00,332.63
             1177.00,332.63 1186.00,336.55 1186.00,336.55
             1188.26,337.48 1190.74,338.14 1192.67,339.70
             1197.10,343.28 1199.87,351.78 1202.01,357.00
             1212.74,383.18 1202.22,410.84 1196.71,437.00
             1196.71,437.00 1191.88,454.00 1191.88,454.00
             1191.88,454.00 1177.74,522.00 1177.74,522.00
             1177.74,522.00 1174.46,536.00 1174.46,536.00
             1171.41,552.18 1169.81,569.55 1170.00,586.00
             1170.12,596.33 1172.69,606.16 1175.41,616.00
             1175.41,616.00 1178.09,627.00 1178.09,627.00
             1178.09,627.00 1186.58,644.00 1186.58,644.00
             1190.49,650.93 1194.35,657.83 1199.46,664.00
             1207.79,674.04 1224.77,685.56 1237.00,690.39
             1241.63,692.22 1262.65,694.93 1268.00,695.00
             1282.10,695.16 1307.36,695.69 1320.00,690.53
             1325.61,688.23 1329.22,684.51 1334.00,681.01
             1341.27,675.68 1349.92,670.16 1355.47,663.00
             1362.68,653.71 1362.70,649.21 1366.90,640.00
             1366.90,640.00 1376.30,620.00 1376.30,620.00
             1376.30,620.00 1384.34,590.00 1384.34,590.00
             1384.34,590.00 1387.33,580.00 1387.33,580.00
             1387.33,580.00 1389.66,566.00 1389.66,566.00
             1389.66,566.00 1394.54,546.00 1394.54,546.00
             1394.54,546.00 1397.52,527.00 1397.52,527.00
             1398.34,523.62 1399.80,521.12 1401.13,518.00
             1407.08,504.04 1412.87,494.29 1427.00,487.18
             1429.90,485.73 1441.75,482.25 1444.44,484.06
             1446.41,485.39 1446.74,488.85 1446.62,491.00
             1446.62,491.00 1442.48,510.00 1442.48,510.00
             1436.94,527.22 1433.03,545.85 1433.00,564.00
             1433.00,564.00 1432.00,587.00 1432.00,587.00
             1432.05,591.18 1433.16,601.22 1434.56,605.00
             1436.00,608.91 1438.22,611.60 1440.49,615.00
             1444.06,620.35 1445.06,622.30 1450.00,626.91
             1462.03,638.11 1483.50,646.37 1500.00,645.99
             1506.12,645.84 1507.18,644.69 1512.00,643.94
             1512.00,643.94 1525.00,643.94 1525.00,643.94
             1525.00,643.94 1544.00,639.46 1544.00,639.46
             1558.10,636.90 1572.14,635.65 1581.21,623.00
             1588.34,613.07 1587.34,606.67 1591.74,597.00
             1591.74,597.00 1600.11,583.00 1600.11,583.00
             1600.11,583.00 1605.78,570.00 1605.78,570.00
             1605.78,570.00 1626.64,532.00 1626.64,532.00
             1629.63,527.87 1639.01,514.14 1642.09,511.80
             1647.84,507.44 1657.01,506.72 1664.00,507.04
             1667.56,507.20 1671.93,507.86 1674.61,510.43
             1677.50,513.20 1678.00,517.30 1678.88,521.00
             1678.88,521.00 1683.73,545.00 1683.73,545.00
             1685.85,558.72 1696.12,586.14 1704.53,597.00
             1708.55,602.20 1723.40,615.18 1729.00,618.52
             1734.54,621.82 1747.27,623.87 1754.00,625.08
             1761.53,626.44 1768.28,629.27 1776.00,628.96
             1786.31,628.54 1807.10,620.27 1815.00,613.67
             1819.77,609.68 1821.51,606.42 1825.30,602.00
             1829.64,596.93 1844.15,583.37 1850.00,581.01
             1853.43,579.62 1857.36,580.16 1861.00,579.71
             1864.12,579.33 1867.93,578.21 1871.00,578.98
             1872.62,579.39 1875.50,580.93 1877.00,581.79
             1887.37,587.67 1886.00,594.05 1889.22,604.00
             1889.22,604.00 1899.82,631.00 1899.82,631.00
             1903.89,639.33 1908.68,642.02 1914.54,648.28
             1917.95,651.93 1918.67,653.89 1923.01,657.54
             1933.81,666.61 1957.77,677.39 1972.00,677.96
             1981.38,678.34 1982.27,676.13 1990.00,673.60
             1990.00,673.60 2001.00,670.27 2001.00,670.27
             2005.27,668.50 2011.54,664.44 2015.99,666.32
             2019.45,667.78 2024.30,673.20 2026.97,676.00
             2026.97,676.00 2050.00,701.83 2050.00,701.83
             2050.00,701.83 2059.00,709.29 2059.00,709.29
             2065.03,714.53 2068.94,719.29 2076.00,723.90
             2076.00,723.90 2103.00,735.76 2103.00,735.76
             2103.00,735.76 2113.00,741.11 2113.00,741.11
             2113.00,741.11 2131.00,747.44 2131.00,747.44
             2141.26,750.62 2147.15,754.72 2159.00,754.99
             2182.50,755.52 2210.15,734.83 2201.24,709.00
             2200.01,705.44 2198.33,702.81 2195.82,700.01
             2187.22,690.43 2182.13,691.28 2171.00,688.67
             2171.00,688.67 2158.00,685.12 2158.00,685.12
             2148.16,682.49 2132.32,675.29 2123.00,670.63
             2123.00,670.63 2105.00,660.47 2105.00,660.47
             2093.85,651.89 2080.81,636.25 2070.96,626.00
             2070.96,626.00 2060.00,615.91 2060.00,615.91
             2055.81,612.01 2053.83,609.55 2049.00,605.90
             2042.95,601.32 2025.40,592.85 2018.00,591.23
             2015.10,590.92 2011.95,590.97 2009.00,591.23
             1996.74,591.14 1989.08,596.99 1978.00,600.74
             1971.64,602.90 1967.66,605.98 1961.13,601.52
             1957.85,599.27 1955.47,592.73 1954.06,589.00
             1954.06,589.00 1950.78,577.00 1950.78,577.00
             1950.78,577.00 1942.60,557.00 1942.60,557.00
             1937.51,546.25 1924.58,531.81 1915.00,525.04
             1909.83,521.39 1906.25,520.05 1901.00,517.14
             1890.46,511.30 1875.31,505.39 1863.00,506.09
             1849.79,506.84 1824.11,510.80 1813.00,517.48
             1806.32,521.50 1796.26,531.58 1790.00,537.16
             1790.00,537.16 1777.04,548.09 1777.04,548.09
             1772.28,552.67 1768.09,559.77 1760.21,556.26
             1756.77,554.73 1753.28,547.45 1751.93,544.00
             1751.93,544.00 1743.56,505.00 1743.56,505.00
             1740.61,494.98 1737.75,489.99 1733.13,481.00
             1730.76,476.38 1730.59,473.74 1727.21,469.00
             1724.06,464.58 1719.12,460.21 1715.17,456.42
             1711.19,452.62 1709.07,449.65 1704.00,446.91
             1698.90,444.17 1690.20,443.42 1684.00,441.56
             1672.57,438.14 1674.08,436.86 1661.00,437.22
             1661.00,437.22 1653.00,437.22 1653.00,437.22
             1643.92,437.43 1642.96,436.33 1633.00,438.45
             1627.21,439.68 1625.88,441.21 1621.00,442.78
             1616.77,444.15 1614.21,444.23 1610.00,446.52
             1603.42,450.09 1600.26,454.01 1595.00,458.91
             1595.00,458.91 1587.09,466.04 1587.09,466.04
             1583.78,469.49 1582.99,471.42 1580.41,475.00
             1580.41,475.00 1574.48,483.00 1574.48,483.00
             1574.48,483.00 1564.24,502.00 1564.24,502.00
             1564.24,502.00 1557.46,512.00 1557.46,512.00
             1549.10,525.71 1545.16,534.47 1538.87,549.00
             1536.23,555.11 1532.23,565.58 1526.98,569.57
             1522.14,573.25 1505.45,575.48 1499.00,576.00
             1499.00,576.00 1501.46,550.00 1501.46,550.00
             1501.46,550.00 1505.11,537.00 1505.11,537.00
             1509.35,520.12 1513.20,503.50 1513.00,486.00
             1512.79,467.91 1505.28,449.11 1492.91,436.01
             1487.92,430.73 1485.99,430.51 1481.00,426.64
             1470.63,418.60 1474.23,420.20 1462.00,415.54
             1451.46,411.52 1452.17,411.85 1441.00,412.21
             1441.00,412.21 1432.00,412.21 1432.00,412.21
             1432.00,412.21 1404.00,417.56 1404.00,417.56
             1399.73,419.13 1395.92,422.21 1392.00,424.55
             1387.97,426.95 1384.77,428.15 1381.01,431.33
             1381.01,431.33 1372.91,439.83 1372.91,439.83
             1360.69,451.70 1354.09,457.31 1345.98,473.00
             1341.59,481.50 1332.63,508.49 1330.67,518.00
             1330.67,518.00 1327.79,535.00 1327.79,535.00
             1327.79,535.00 1322.45,558.00 1322.45,558.00
             1322.45,558.00 1318.84,578.00 1318.84,578.00
             1316.35,587.52 1314.05,590.65 1310.35,599.00
             1310.35,599.00 1307.21,607.00 1307.21,607.00
             1299.13,624.36 1284.72,628.59 1267.00,626.13
             1264.17,625.74 1257.33,624.97 1255.02,623.99
             1250.99,622.30 1249.56,619.46 1247.31,616.00
             1241.15,606.54 1239.69,600.26 1238.98,589.00
             1238.38,579.57 1239.95,572.28 1241.08,563.00
             1241.08,563.00 1241.08,551.00 1241.08,551.00
             1241.08,551.00 1246.54,528.00 1246.54,528.00
             1246.54,528.00 1247.53,519.00 1247.53,519.00
             1247.53,519.00 1250.70,508.00 1250.70,508.00
             1250.70,508.00 1253.65,488.00 1253.65,488.00
             1253.65,488.00 1256.77,475.00 1256.77,475.00
             1256.77,475.00 1263.09,457.00 1263.09,457.00
             1263.09,457.00 1265.38,445.00 1265.38,445.00
             1265.38,445.00 1268.33,436.00 1268.33,436.00
             1268.33,436.00 1270.44,423.00 1270.44,423.00
             1271.74,415.12 1273.89,414.08 1274.04,405.00
             1274.04,405.00 1274.04,396.00 1274.04,396.00
             1274.45,390.77 1275.33,389.04 1274.91,383.00
             1274.91,383.00 1272.13,368.00 1272.13,368.00
             1268.60,344.56 1264.55,328.23 1251.54,308.00
             1251.54,308.00 1246.47,300.00 1246.47,300.00
             1242.24,294.51 1228.02,282.34 1222.00,278.88
             1215.63,275.22 1199.31,268.87 1192.00,266.48
             1161.87,256.65 1145.51,250.62 1113.00,251.00
             1105.88,251.09 1097.21,253.65 1090.00,254.92
             1090.00,254.92 1073.00,257.65 1073.00,257.65
             1051.06,262.84 1024.91,275.37 1010.46,293.00
             1003.69,301.26 993.08,320.78 989.54,331.00
             989.54,331.00 986.30,343.00 986.30,343.00
             986.30,343.00 980.53,357.00 980.53,357.00
             980.53,357.00 971.95,385.00 971.95,385.00
             971.95,385.00 966.91,397.00 966.91,397.00
             966.91,397.00 964.25,408.00 964.25,408.00
             964.25,408.00 959.42,423.00 959.42,423.00
             959.42,423.00 954.67,444.00 954.67,444.00
             954.67,444.00 951.83,462.00 951.83,462.00
             951.83,462.00 948.47,473.00 948.47,473.00
             948.47,473.00 947.83,487.00 947.83,487.00
             947.12,494.10 946.01,494.04 946.00,503.00
             946.00,503.00 946.00,525.00 946.00,525.00
             946.00,525.00 947.91,545.00 947.91,545.00
             947.62,549.75 945.78,553.07 946.19,558.00
             946.19,558.00 947.43,565.00 947.43,565.00
             947.43,565.00 947.43,573.00 947.43,573.00
             947.43,573.00 947.43,579.00 947.43,579.00
             947.43,579.00 946.01,591.00 946.01,591.00
             946.01,591.00 947.46,615.00 947.46,615.00
             947.46,615.00 950.94,629.00 950.94,629.00
             950.94,629.00 950.94,638.00 950.94,638.00
             950.94,638.00 953.00,674.00 953.00,674.00
             953.00,674.00 951.09,694.00 951.09,694.00
             951.30,697.59 952.21,700.08 951.89,704.00
             951.89,704.00 948.46,718.00 948.46,718.00
             948.46,718.00 947.72,731.00 947.72,731.00
             947.72,731.00 945.00,751.00 945.00,751.00
             944.87,762.79 944.16,773.78 939.94,785.00
             938.91,787.72 936.56,793.67 934.59,795.57
             930.90,799.11 925.50,797.82 921.00,797.28
             917.95,796.92 913.65,797.24 911.00,796.27
             906.84,794.73 893.41,782.36 890.84,778.72
             885.52,771.17 885.98,757.80 885.92,749.00
             885.92,749.00 883.17,732.00 883.17,732.00
             883.17,732.00 884.00,719.00 884.00,719.00
             884.00,719.00 885.00,693.00 885.00,693.00
             885.02,679.20 891.06,666.73 895.77,654.00
             895.77,654.00 902.81,633.00 902.81,633.00
             902.81,633.00 907.57,623.00 907.57,623.00
             907.57,623.00 913.33,608.00 913.33,608.00
             913.33,608.00 921.10,592.00 921.10,592.00
             921.10,592.00 924.92,581.00 924.92,581.00
             928.47,572.05 932.83,563.60 934.54,554.00
             934.54,554.00 935.30,546.00 935.30,546.00
             936.59,537.03 936.89,538.88 937.00,529.00
             937.00,529.00 937.91,516.00 937.91,516.00
             936.45,490.26 933.11,475.43 922.12,452.00
             917.43,442.02 915.99,435.28 906.99,427.18
             900.69,421.53 897.44,421.54 890.00,419.16
             877.35,415.12 870.63,415.77 858.00,414.91
             858.00,414.91 850.00,414.08 850.00,414.08
             850.00,414.08 833.00,415.00 833.00,415.00
             822.91,414.88 807.27,410.88 799.00,412.47
             792.38,413.74 782.04,421.92 775.00,425.33
             775.00,425.33 757.00,433.45 757.00,433.45
             743.11,441.72 740.74,444.53 729.00,454.82
             729.00,454.82 720.04,462.09 720.04,462.09
             716.54,465.47 715.51,467.62 712.68,471.00
             712.68,471.00 703.30,481.00 703.30,481.00
             703.30,481.00 688.46,502.00 688.46,502.00
             688.46,502.00 673.34,530.00 673.34,530.00
             673.34,530.00 669.81,541.00 669.81,541.00
             658.55,567.08 659.46,560.45 652.99,589.00
             652.99,589.00 650.46,599.00 650.46,599.00
             650.46,599.00 648.18,621.00 648.18,621.00
             648.18,621.00 650.00,639.00 650.00,639.00
             650.00,639.00 651.91,663.00 651.91,663.00
             651.91,663.00 653.46,685.00 653.46,685.00
             653.46,685.00 660.33,715.00 660.33,715.00
             660.33,715.00 663.15,730.00 663.15,730.00
             663.15,730.00 669.96,750.00 669.96,750.00
             669.96,750.00 674.45,766.00 674.45,766.00
             674.45,766.00 680.87,782.00 680.87,782.00
             680.87,782.00 687.57,797.00 687.57,797.00
             687.57,797.00 690.44,807.00 690.44,807.00
             690.44,807.00 692.62,814.00 692.62,814.00
             692.62,814.00 693.30,821.00 693.30,821.00
             694.55,829.71 695.11,828.09 695.00,838.00
             694.93,843.39 693.37,854.90 691.78,860.00
             691.78,860.00 688.93,868.00 688.93,868.00
             687.33,873.83 687.37,879.04 682.78,883.87
             680.18,886.60 677.16,887.63 674.00,889.46
             655.56,900.14 645.38,898.27 625.00,898.00
             613.84,897.85 600.46,890.48 591.00,885.01
             591.00,885.01 584.00,881.19 584.00,881.19
             584.00,881.19 551.00,857.38 551.00,857.38
             551.00,857.38 522.00,832.51 522.00,832.51
             522.00,832.51 494.00,812.53 494.00,812.53
             494.00,812.53 484.00,808.02 484.00,808.02
             472.07,801.91 470.65,799.02 456.00,799.00
             429.14,798.96 407.59,802.05 382.00,810.25
             382.00,810.25 372.00,813.35 372.00,813.35
             366.49,815.80 361.90,819.96 357.00,823.41
             357.00,823.41 340.01,835.32 340.01,835.32
             340.01,835.32 327.33,847.04 327.33,847.04
             327.33,847.04 321.22,856.00 321.22,856.00
             321.22,856.00 314.04,865.00 314.04,865.00
             314.04,865.00 302.09,884.00 302.09,884.00
             302.09,884.00 295.00,897.00 295.00,897.00
             285.98,882.46 285.39,877.75 279.91,863.00 Z" />
</svg>
