<?xml version="1.0" encoding="UTF-8" standalone="no"?>
<!DOCTYPE svg PUBLIC "-//W3C//DTD SVG 20010904//EN"
              "http://www.w3.org/TR/2001/REC-SVG-20010904/DTD/svg10.dtd">

<svg xmlns="http://www.w3.org/2000/svg"
     width="31.375in" height="28.0833in"
     viewBox="0 0 2259 2022">
  <path id="Selection"
        fill="black" stroke="black" stroke-width="1"
        d="M 1047.00,60.21
           C 1069.23,60.00 1093.76,62.62 1114.00,72.60
             1123.56,77.32 1138.36,89.66 1138.76,101.00
             1139.28,107.21 1137.44,110.69 1138.76,115.00
             1140.94,124.02 1151.63,128.38 1160.00,125.28
             1167.31,122.58 1168.88,117.45 1177.00,113.38
             1185.32,109.20 1197.77,108.53 1207.00,108.30
             1207.00,108.30 1226.00,107.09 1226.00,107.09
             1226.00,107.09 1241.00,109.00 1241.00,109.00
             1241.00,109.00 1251.00,109.00 1251.00,109.00
             1251.00,109.00 1285.00,114.23 1285.00,114.23
             1285.00,114.23 1334.00,130.36 1334.00,130.36
             1334.00,130.36 1369.00,150.20 1369.00,150.20
             1369.00,150.20 1390.00,165.28 1390.00,165.28
             1390.00,165.28 1414.99,181.43 1414.99,181.43
             1414.99,181.43 1424.04,189.93 1424.04,189.93
             1431.06,196.58 1435.41,198.55 1439.69,208.00
             1443.77,217.02 1443.96,232.91 1454.00,237.51
             1461.93,241.13 1468.39,231.14 1470.91,225.00
             1470.91,225.00 1475.56,210.00 1475.56,210.00
             1480.61,200.88 1492.32,198.54 1502.00,199.09
             1510.48,199.57 1518.75,202.01 1527.00,203.79
             1555.64,209.98 1590.01,223.84 1609.83,246.00
             1619.47,256.78 1626.84,268.12 1630.96,282.00
             1633.12,289.26 1634.69,304.85 1640.21,309.35
             1647.85,315.58 1664.77,312.90 1674.00,313.00
             1684.89,313.13 1701.36,315.71 1712.00,318.37
             1712.00,318.37 1726.00,322.34 1726.00,322.34
             1726.00,322.34 1740.00,324.81 1740.00,324.81
             1740.00,324.81 1783.00,336.04 1783.00,336.04
             1783.00,336.04 1795.00,342.99 1795.00,342.99
             1795.00,342.99 1822.00,359.76 1822.00,359.76
             1822.00,359.76 1836.00,370.96 1836.00,370.96
             1848.79,380.68 1859.96,387.56 1871.91,399.17
             1871.91,399.17 1881.20,409.83 1881.20,409.83
             1881.20,409.83 1901.15,432.00 1901.15,432.00
             1908.96,440.87 1918.01,449.06 1924.41,459.00
             1931.25,469.62 1937.49,480.47 1942.69,492.00
             1942.69,492.00 1946.31,501.00 1946.31,501.00
             1946.31,501.00 1952.46,515.00 1952.46,515.00
             1952.46,515.00 1957.23,535.00 1957.23,535.00
             1957.23,535.00 1963.97,560.00 1963.97,560.00
             1967.21,571.05 1965.00,588.38 1969.01,595.00
             1974.91,604.75 1983.07,601.69 1992.00,602.04
             2018.18,603.07 2043.69,626.64 2058.88,646.00
             2058.88,646.00 2077.91,669.00 2077.91,669.00
             2083.14,677.11 2083.47,680.68 2087.12,688.00
             2087.12,688.00 2100.94,715.00 2100.94,715.00
             2109.42,737.17 2112.27,761.42 2112.00,785.00
             2112.00,785.00 2109.18,813.00 2109.18,813.00
             2109.18,813.00 2104.66,831.00 2104.66,831.00
             2104.66,831.00 2101.55,849.00 2101.55,849.00
             2099.05,861.51 2095.40,873.98 2091.14,886.00
             2091.14,886.00 2081.86,908.00 2081.86,908.00
             2081.86,908.00 2078.19,919.00 2078.19,919.00
             2076.00,924.88 2073.08,931.66 2074.71,938.00
             2077.90,950.39 2089.95,950.35 2100.00,952.65
             2110.32,955.02 2121.39,956.75 2131.00,961.32
             2137.42,964.37 2147.54,972.35 2152.99,977.13
             2166.99,989.42 2173.45,1001.42 2180.86,1018.00
             2180.86,1018.00 2190.25,1037.00 2190.25,1037.00
             2195.31,1052.21 2195.30,1067.28 2196.04,1083.00
             2196.04,1083.00 2196.98,1093.00 2196.98,1093.00
             2197.11,1099.24 2196.00,1102.21 2195.14,1108.00
             2195.14,1108.00 2195.14,1118.00 2195.14,1118.00
             2194.81,1134.35 2188.99,1155.40 2184.03,1171.00
             2181.12,1180.14 2180.27,1185.67 2176.14,1195.00
             2176.14,1195.00 2160.32,1226.00 2160.32,1226.00
             2160.32,1226.00 2156.69,1235.00 2156.69,1235.00
             2156.69,1235.00 2149.63,1248.00 2149.63,1248.00
             2143.32,1259.96 2139.57,1269.38 2131.43,1281.00
             2131.43,1281.00 2121.90,1293.00 2121.90,1293.00
             2117.65,1298.61 2116.16,1301.56 2110.96,1307.00
             2110.96,1307.00 2099.09,1319.00 2099.09,1319.00
             2099.09,1319.00 2090.00,1328.96 2090.00,1328.96
             2090.00,1328.96 2053.00,1362.01 2053.00,1362.01
             2045.71,1368.04 2033.21,1373.42 2034.20,1384.00
             2034.20,1384.00 2037.83,1403.00 2037.83,1403.00
             2037.83,1403.00 2036.83,1422.00 2036.83,1422.00
             2036.17,1428.61 2034.02,1434.78 2031.86,1441.00
             2031.86,1441.00 2027.65,1454.00 2027.65,1454.00
             2023.46,1463.41 2011.29,1479.63 2003.96,1486.96
             2003.96,1486.96 1980.00,1507.99 1980.00,1507.99
             1980.00,1507.99 1969.00,1516.30 1969.00,1516.30
             1969.00,1516.30 1952.00,1532.71 1952.00,1532.71
             1944.19,1539.51 1923.45,1553.43 1914.00,1557.69
             1908.10,1560.35 1891.23,1565.42 1885.00,1564.82
             1877.35,1564.09 1866.54,1558.20 1860.11,1563.43
             1855.84,1566.90 1855.20,1571.96 1854.20,1577.00
             1852.42,1585.96 1853.53,1585.74 1852.83,1593.00
             1852.83,1593.00 1850.20,1609.00 1850.20,1609.00
             1846.54,1627.00 1839.36,1638.79 1829.81,1654.00
             1829.81,1654.00 1819.33,1671.00 1819.33,1671.00
             1803.85,1693.92 1782.31,1707.00 1759.00,1720.34
             1759.00,1720.34 1733.00,1736.22 1733.00,1736.22
             1733.00,1736.22 1719.00,1741.34 1719.00,1741.34
             1719.00,1741.34 1706.00,1746.28 1706.00,1746.28
             1706.00,1746.28 1677.00,1753.91 1677.00,1753.91
             1677.00,1753.91 1661.00,1759.25 1661.00,1759.25
             1661.00,1759.25 1624.00,1766.80 1624.00,1766.80
             1615.45,1768.42 1605.50,1770.99 1597.00,1771.00
             1597.00,1771.00 1583.00,1771.00 1583.00,1771.00
             1573.18,1770.88 1557.10,1767.43 1550.39,1759.82
             1544.10,1752.68 1550.30,1746.72 1541.96,1740.51
             1540.21,1739.21 1538.20,1738.38 1536.00,1738.37
             1526.79,1738.33 1519.64,1751.92 1513.00,1757.56
             1504.53,1764.75 1476.30,1782.30 1466.00,1786.86
             1459.29,1789.83 1451.54,1793.54 1444.00,1792.82
             1429.33,1791.43 1423.21,1783.60 1412.00,1776.47
             1407.33,1773.62 1401.80,1771.73 1397.43,1776.47
             1393.42,1780.67 1396.25,1785.25 1399.33,1789.00
             1410.77,1802.95 1415.23,1802.09 1420.26,1822.00
             1420.26,1822.00 1424.83,1849.00 1424.83,1849.00
             1425.54,1856.41 1424.50,1856.55 1426.26,1866.00
             1426.26,1866.00 1431.23,1894.00 1431.23,1894.00
             1432.79,1900.73 1436.55,1912.78 1436.91,1919.00
             1437.17,1923.47 1436.34,1929.41 1432.78,1932.49
             1429.72,1935.13 1421.22,1936.66 1417.00,1937.86
             1417.00,1937.86 1384.00,1948.31 1384.00,1948.31
             1384.00,1948.31 1360.00,1955.81 1360.00,1955.81
             1355.73,1957.43 1350.58,1960.52 1346.00,1959.59
             1338.11,1958.00 1332.57,1944.65 1329.25,1938.00
             1329.25,1938.00 1297.75,1874.00 1297.75,1874.00
             1297.75,1874.00 1288.40,1854.00 1288.40,1854.00
             1288.40,1854.00 1281.48,1841.00 1281.48,1841.00
             1281.48,1841.00 1275.63,1828.00 1275.63,1828.00
             1275.63,1828.00 1263.13,1804.00 1263.13,1804.00
             1263.13,1804.00 1254.81,1790.00 1254.81,1790.00
             1254.81,1790.00 1249.69,1778.00 1249.69,1778.00
             1249.69,1778.00 1229.13,1733.00 1229.13,1733.00
             1221.79,1715.77 1206.21,1685.86 1206.00,1668.00
             1206.00,1668.00 1206.00,1656.00 1206.00,1656.00
             1206.16,1644.41 1213.34,1630.53 1225.00,1627.04
             1232.60,1624.77 1240.15,1627.49 1245.98,1624.07
             1248.92,1622.35 1252.20,1618.72 1251.16,1615.04
             1249.20,1608.18 1239.65,1607.94 1234.00,1608.00
             1225.10,1608.10 1218.73,1610.08 1211.00,1614.42
             1203.87,1618.43 1196.74,1624.74 1188.00,1622.58
             1183.83,1621.56 1174.57,1614.76 1171.00,1611.91
             1157.50,1601.13 1158.13,1603.08 1145.72,1589.00
             1145.72,1589.00 1129.24,1571.00 1129.24,1571.00
             1129.24,1571.00 1114.08,1550.00 1114.08,1550.00
             1114.08,1550.00 1107.26,1539.00 1107.26,1539.00
             1107.26,1539.00 1088.67,1512.00 1088.67,1512.00
             1088.67,1512.00 1075.88,1493.00 1075.88,1493.00
             1062.07,1474.26 1046.34,1444.49 1036.86,1423.00
             1032.31,1412.66 1028.61,1398.23 1045.00,1398.00
             1045.00,1398.00 1059.00,1398.00 1059.00,1398.00
             1067.85,1397.88 1077.88,1392.56 1079.38,1383.00
             1080.35,1376.78 1074.89,1369.26 1069.00,1367.57
             1065.73,1366.63 1046.16,1367.87 1042.00,1368.42
             1042.00,1368.42 1033.00,1369.46 1033.00,1369.46
             1033.00,1369.46 1019.00,1372.56 1019.00,1372.56
             1019.00,1372.56 1009.00,1373.43 1009.00,1373.43
             1009.00,1373.43 963.00,1380.00 963.00,1380.00
             963.00,1380.00 954.00,1380.00 954.00,1380.00
             954.00,1380.00 924.00,1382.00 924.00,1382.00
             924.00,1382.00 898.00,1382.00 898.00,1382.00
             898.00,1382.00 888.00,1380.96 888.00,1380.96
             888.00,1380.96 879.00,1380.96 879.00,1380.96
             879.00,1380.96 851.00,1376.42 851.00,1376.42
             838.56,1374.49 825.92,1373.21 814.00,1368.91
             814.00,1368.91 790.00,1356.31 790.00,1356.31
             790.00,1356.31 775.00,1350.69 775.00,1350.69
             775.00,1350.69 761.00,1343.26 761.00,1343.26
             761.00,1343.26 730.00,1327.23 730.00,1327.23
             730.00,1327.23 715.00,1319.97 715.00,1319.97
             700.22,1311.92 675.86,1296.12 663.00,1285.54
             663.00,1285.54 653.00,1276.28 653.00,1276.28
             653.00,1276.28 634.59,1258.99 634.59,1258.99
             616.97,1238.58 605.57,1212.71 602.10,1186.00
             602.10,1186.00 602.10,1177.00 602.10,1177.00
             602.10,1177.00 601.08,1169.00 601.08,1169.00
             601.08,1169.00 602.44,1150.00 602.44,1150.00
             602.44,1150.00 604.79,1137.00 604.79,1137.00
             605.17,1128.03 597.41,1122.58 589.00,1123.09
             581.02,1123.58 580.34,1126.16 566.00,1126.00
             552.33,1125.84 538.49,1122.39 525.00,1120.43
             525.00,1120.43 509.00,1118.39 509.00,1118.39
             509.00,1118.39 494.00,1115.43 494.00,1115.43
             494.00,1115.43 478.00,1113.73 478.00,1113.73
             478.00,1113.73 458.00,1109.61 458.00,1109.61
             458.00,1109.61 418.00,1102.12 418.00,1102.12
             418.00,1102.12 387.00,1093.29 387.00,1093.29
             387.00,1093.29 364.00,1087.66 364.00,1087.66
             364.00,1087.66 330.00,1072.43 330.00,1072.43
             305.79,1062.10 309.11,1064.95 285.00,1050.60
             285.00,1050.60 274.00,1044.30 274.00,1044.30
             265.10,1038.58 242.75,1021.84 235.00,1014.83
             235.00,1014.83 222.00,1002.09 222.00,1002.09
             222.00,1002.09 180.00,962.00 180.00,962.00
             180.00,962.00 166.17,948.00 166.17,948.00
             166.17,948.00 155.49,934.00 155.49,934.00
             155.49,934.00 147.67,925.00 147.67,925.00
             147.67,925.00 129.14,898.00 129.14,898.00
             129.14,898.00 113.87,876.00 113.87,876.00
             108.49,866.59 107.37,861.36 103.55,852.00
             103.55,852.00 98.45,841.00 98.45,841.00
             94.29,830.72 90.88,817.09 91.00,806.00
             91.27,782.78 103.04,760.23 115.06,741.00
             122.18,729.62 134.51,727.45 132.90,717.00
             132.57,714.86 131.46,712.77 130.20,711.04
             127.64,707.53 123.07,704.05 118.58,703.78
             114.62,703.73 108.44,706.51 103.00,703.78
             94.92,699.48 87.02,682.55 84.08,674.00
             84.08,674.00 79.31,659.00 79.31,659.00
             79.31,659.00 74.04,645.00 74.04,645.00
             74.04,645.00 71.11,631.00 71.11,631.00
             71.11,631.00 63.67,603.00 63.67,603.00
             63.67,603.00 62.56,594.00 62.56,594.00
             61.10,584.74 58.81,570.16 59.01,561.00
             59.27,549.90 64.28,521.58 67.75,511.00
             67.75,511.00 73.80,496.00 73.80,496.00
             77.56,486.43 81.01,476.81 86.47,468.00
             89.88,462.49 107.05,442.12 111.99,437.00
             111.99,437.00 128.00,419.33 128.00,419.33
             133.01,415.14 148.60,406.95 155.00,403.75
             163.07,399.72 168.69,395.67 178.00,396.04
             178.00,396.04 192.00,397.75 192.00,397.75
             199.04,397.04 204.39,390.41 210.00,386.44
             214.36,383.36 220.76,380.25 220.66,374.00
             220.50,363.33 206.85,360.01 211.75,345.00
             211.75,345.00 216.63,334.00 216.63,334.00
             227.46,310.50 240.91,294.05 263.00,280.09
             268.32,276.73 276.98,273.96 283.00,271.55
             290.27,268.65 297.38,265.43 305.00,263.48
             320.74,259.45 340.60,260.69 356.00,265.75
             356.00,265.75 391.00,284.75 391.00,284.75
             397.28,287.87 403.29,291.06 409.98,286.85
             411.29,286.04 412.58,284.98 413.58,283.82
             423.14,272.70 405.85,265.64 406.38,253.00
             406.68,245.66 409.56,242.16 412.74,236.00
             416.77,228.20 420.40,220.28 425.34,213.00
             430.33,205.67 435.40,198.15 442.00,192.17
             445.46,189.03 451.16,184.36 455.00,181.75
             455.00,181.75 467.00,173.54 467.00,173.54
             467.00,173.54 493.00,153.10 493.00,153.10
             493.00,153.10 509.00,144.45 509.00,144.45
             531.41,130.05 530.69,127.99 557.00,115.26
             557.00,115.26 579.00,104.92 579.00,104.92
             579.00,104.92 594.00,99.83 594.00,99.83
             594.00,99.83 610.00,90.89 610.00,90.89
             610.00,90.89 648.00,76.78 648.00,76.78
             648.00,76.78 666.00,74.11 666.00,74.11
             680.85,70.76 695.59,66.18 711.00,66.00
             711.00,66.00 726.00,66.00 726.00,66.00
             726.00,66.00 761.00,63.00 761.00,63.00
             761.00,63.00 776.00,63.00 776.00,63.00
             776.00,63.00 803.00,65.83 803.00,65.83
             803.00,65.83 820.00,67.17 820.00,67.17
             820.00,67.17 830.00,68.83 830.00,68.83
             830.00,68.83 838.00,69.43 838.00,69.43
             849.83,71.13 861.77,73.44 873.00,77.54
             873.00,77.54 892.00,86.89 892.00,86.89
             892.00,86.89 918.00,97.86 918.00,97.86
             925.69,101.03 929.77,103.14 937.00,107.14
             940.43,109.03 944.97,111.69 949.00,111.03
             957.89,109.56 959.00,99.92 961.54,93.00
             963.59,87.43 968.94,79.29 973.17,75.18
             984.77,63.91 1008.83,62.62 1024.00,60.21
             1024.00,60.21 1047.00,60.21 1047.00,60.21 Z" />
</svg>
