<?xml version="1.0" encoding="UTF-8" standalone="no"?>
<!DOCTYPE svg PUBLIC "-//W3C//DTD SVG 20010904//EN"
              "http://www.w3.org/TR/2001/REC-SVG-20010904/DTD/svg10.dtd">

<svg xmlns="http://www.w3.org/2000/svg"
     width="6.94358in" height="5.36044in"
     viewBox="0 0 500 386">
  <path id="Selection"
        fill="#3b497c" stroke="none" stroke-width="0"
        d="M 94.00,14.29
           C 95.66,11.42 97.91,9.63 100.93,8.33
             107.00,5.71 112.79,7.80 119.00,9.00
             119.00,9.00 150.83,14.81 150.83,14.81
             150.83,14.81 193.00,22.42 193.00,22.42
             193.00,22.42 237.00,30.59 237.00,30.59
             237.00,30.59 271.00,36.99 271.00,36.99
             275.54,37.96 280.77,38.19 285.00,40.00
             285.00,40.00 241.00,40.00 241.00,40.00
             229.90,39.98 219.13,36.97 208.28,35.02
             208.28,35.02 171.00,28.39 171.00,28.39
             171.00,28.39 128.00,20.25 128.00,20.25
             124.29,19.63 111.90,17.13 109.00,17.44
             97.25,18.70 101.88,35.35 97.27,39.01
             95.61,40.32 91.12,40.00 89.00,40.00
             89.40,35.06 91.84,18.02 94.00,14.29 Z
           M 169.00,40.00
           C 169.00,40.00 128.00,40.00 128.00,40.00
             135.76,31.84 160.93,32.63 169.00,40.00 Z
           M 419.00,310.00
           C 419.00,310.00 419.00,326.00 419.00,326.00
             419.00,336.05 420.24,346.82 408.00,350.36
             405.44,351.11 402.65,351.00 400.00,351.00
             400.00,351.00 100.00,351.00 100.00,351.00
             100.00,351.00 28.00,351.00 28.00,351.00
             14.36,350.98 9.02,345.64 9.00,332.00
             9.00,332.00 9.00,109.00 9.00,109.00
             9.00,109.00 9.00,68.00 9.00,68.00
             9.00,61.70 8.06,53.52 11.36,48.04
             15.26,41.58 21.23,41.01 28.00,41.00
             28.00,41.00 328.00,41.00 328.00,41.00
             328.00,41.00 389.00,41.00 389.00,41.00
             396.59,41.00 407.77,39.58 413.79,44.64
             420.01,49.86 419.00,57.77 419.00,65.00
             419.00,65.00 459.00,71.54 459.00,71.54
             459.00,71.54 486.00,77.22 486.00,77.22
             492.65,80.28 494.30,85.04 493.91,92.00
             493.91,92.00 482.25,157.00 482.25,157.00
             482.25,157.00 464.61,252.00 464.61,252.00
             464.61,252.00 455.12,304.00 455.12,304.00
             455.12,304.00 449.74,335.00 449.74,335.00
             449.74,335.00 445.75,355.00 445.75,355.00
             444.51,361.71 443.88,371.79 438.53,376.35
             432.50,381.50 423.85,378.92 417.00,377.51
             417.00,377.51 398.00,374.00 398.00,374.00
             398.00,374.00 319.00,359.61 319.00,359.61
             319.00,359.61 281.00,352.00 281.00,352.00
             281.00,352.00 325.00,352.00 325.00,352.00
             325.00,352.00 392.00,363.13 392.00,363.13
             392.00,363.13 409.00,366.49 409.00,366.49
             409.00,366.49 417.00,367.61 417.00,367.61
             421.48,368.78 426.75,370.66 430.81,367.61
             435.41,363.87 436.17,354.57 437.00,349.00
             437.00,349.00 438.91,340.00 438.91,340.00
             438.91,340.00 444.00,312.00 444.00,312.00
             444.00,312.00 459.63,226.00 459.63,226.00
             459.63,226.00 473.73,151.00 473.73,151.00
             473.73,151.00 481.61,108.00 481.61,108.00
             482.38,103.88 485.10,93.38 483.06,89.93
             479.64,84.12 471.15,83.45 465.00,82.31
             465.00,82.31 438.00,77.41 438.00,77.41
             438.00,77.41 419.00,74.00 419.00,74.00
             419.00,74.00 419.00,127.00 419.00,127.00
             419.00,127.00 433.00,129.00 433.00,129.00
             433.00,129.00 431.00,137.00 431.00,137.00
             431.00,137.00 419.00,135.00 419.00,135.00
             419.00,135.00 419.00,167.00 419.00,167.00
             419.00,167.00 425.00,168.00 425.00,168.00
             425.00,168.00 424.00,176.00 424.00,176.00
             424.00,176.00 419.00,175.00 419.00,175.00
             419.00,175.00 419.00,310.00 419.00,310.00 Z
           M 21.17,56.11
           C 20.01,58.18 20.04,60.69 20.00,63.00
             20.00,63.00 20.00,86.00 20.00,86.00
             20.00,86.00 20.00,187.00 20.00,187.00
             20.00,187.00 20.00,304.00 20.00,304.00
             20.00,304.00 20.00,329.00 20.00,329.00
             20.05,332.14 20.04,335.18 22.43,337.57
             25.22,340.36 29.38,339.99 33.00,340.00
             33.00,340.00 208.00,340.00 208.00,340.00
             208.00,340.00 361.00,340.00 361.00,340.00
             361.00,340.00 395.00,340.00 395.00,340.00
             398.19,339.99 402.09,340.29 404.77,338.26
             408.39,335.53 407.99,331.03 408.00,327.00
             408.00,327.00 408.00,116.00 408.00,116.00
             408.00,116.00 408.00,63.00 408.00,63.00
             407.86,52.85 404.06,52.01 395.00,52.11
             395.00,52.11 148.00,52.11 148.00,52.11
             148.00,52.11 68.00,52.11 68.00,52.11
             68.00,52.11 26.02,52.11 26.02,52.11
             23.69,53.40 22.52,53.72 21.17,56.11 Z
           M 111.21,78.00
           C 125.44,97.96 117.63,130.68 95.00,141.10
             87.11,144.74 81.46,145.10 73.00,145.00
             41.12,144.62 23.63,109.23 37.38,82.00
             43.39,70.08 54.37,63.27 67.00,60.46
             84.80,58.00 100.46,62.91 111.21,78.00 Z
           M 45.48,85.00
           C 42.68,89.63 39.74,98.57 40.19,104.00
             41.63,121.49 56.51,136.37 74.00,137.81
             92.32,139.33 112.33,119.32 110.81,101.00
             109.28,82.47 91.92,65.83 73.00,67.30
             61.31,69.49 51.82,74.50 45.48,85.00 Z
           M 75.00,79.18
           C 76.86,78.96 80.24,78.98 82.00,79.18
             90.22,81.03 93.04,89.95 89.26,96.00
             86.69,100.11 82.09,102.46 79.56,106.04
             77.90,108.39 77.04,112.18 76.00,115.00
             76.00,115.00 74.00,115.00 74.00,115.00
             72.50,109.69 72.60,105.74 76.53,101.46
             79.30,98.44 84.90,95.42 85.42,91.00
             86.04,85.80 79.24,81.34 73.00,83.74
             69.08,85.25 67.11,88.63 65.00,92.00
             57.12,87.42 65.99,79.27 75.00,79.18 Z
           M 365.00,102.00
           C 365.00,102.00 365.00,112.00 365.00,112.00
             365.00,112.00 155.00,112.00 155.00,112.00
             155.00,112.00 155.00,102.00 155.00,102.00
             155.00,102.00 365.00,102.00 365.00,102.00 Z
           M 77.22,125.00
           C 75.10,126.87 69.09,125.10 73.43,120.08
             78.59,118.85 78.94,123.49 77.22,125.00 Z
           M 365.00,142.00
           C 365.00,142.00 365.00,152.00 365.00,152.00
             365.00,152.00 155.00,152.00 155.00,152.00
             155.00,152.00 155.00,142.00 155.00,142.00
             155.00,142.00 365.00,142.00 365.00,142.00 Z
           M 365.00,182.00
           C 365.00,182.00 365.00,192.00 365.00,192.00
             365.00,192.00 75.00,192.00 75.00,192.00
             75.00,192.00 75.00,182.00 75.00,182.00
             75.00,182.00 365.00,182.00 365.00,182.00 Z
           M 365.00,222.00
           C 365.00,222.00 365.00,232.00 365.00,232.00
             365.00,232.00 75.00,232.00 75.00,232.00
             75.00,232.00 75.00,222.00 75.00,222.00
             75.00,222.00 365.00,222.00 365.00,222.00 Z
           M 365.00,262.00
           C 365.00,262.00 365.00,272.00 365.00,272.00
             365.00,272.00 75.00,272.00 75.00,272.00
             75.00,272.00 75.00,262.00 75.00,262.00
             75.00,262.00 365.00,262.00 365.00,262.00 Z" />
</svg>
