<?xml version="1.0" encoding="UTF-8" standalone="no"?>
<!DOCTYPE svg PUBLIC "-//W3C//DTD SVG 20010904//EN"
              "http://www.w3.org/TR/2001/REC-SVG-20010904/DTD/svg10.dtd">

<svg xmlns="http://www.w3.org/2000/svg"
     width="6.94444in" height="5.35556in"
     viewBox="0 0 625 482">
     <defs>
       <radialGradient id="light" cx="50%" c="50%" r="70%" fx="50%" fy="50%">
         <stop offset="0%" style="stop-color:rgb(255,255,255); stop-opacity:0" />
         <stop offset="100%" style="stop-color:rgb(255,250,153); stop-opacity:1" />
       </radialGradient>
     </defs>
     <!-- Linear Gradient code based on: https://www.w3schools.com/graphics/tryit.asp?filename=trysvg_radial -->
     <path id="Selection #1"
           fill="url(#light)" stroke="none" stroke-width="0"
           d="M 234.00,363.00
              C 231.94,363.00 228.38,363.26 226.70,362.01
                224.61,360.46 222.57,353.61 221.66,351.00
                221.66,351.00 212.01,326.00 212.01,326.00
                212.01,326.00 188.69,297.00 188.69,297.00
                171.39,270.42 163.63,241.56 164.00,210.00
                164.42,174.46 182.73,133.74 208.04,109.09
                221.80,95.68 238.36,84.97 256.00,77.43
                275.47,69.10 296.94,65.76 318.00,66.00
                326.89,66.11 340.28,68.46 349.00,70.63
                397.22,82.63 436.61,118.08 453.31,165.00
                464.30,195.89 464.45,225.58 455.85,257.00
                450.97,274.83 440.05,294.74 428.39,309.00
                428.39,309.00 418.91,319.96 418.91,319.96
                414.88,324.10 411.42,325.77 408.36,331.00
                408.36,331.00 399.15,353.00 399.15,353.00
                398.19,355.24 396.21,360.68 394.35,362.01
                392.61,363.25 389.10,363.00 387.00,363.00
                387.00,363.00 317.00,363.00 317.00,363.00
                317.00,363.00 317.00,329.00 317.00,329.00
                317.00,329.00 306.00,329.00 306.00,329.00
                306.00,329.00 306.00,363.00 306.00,363.00
                306.00,363.00 234.00,363.00 234.00,363.00 Z" />
  <path id="Selection"
        fill="#3d3d3d" stroke="none" stroke-width="0"
        d="M 325.00,45.21
           C 362.68,45.44 407.43,67.01 433.99,93.04
             450.55,109.28 465.95,135.19 473.95,157.00
             482.89,181.39 483.04,199.71 483.00,225.00
             482.96,249.97 475.25,272.00 464.25,294.00
             460.15,302.19 456.98,308.45 451.57,316.00
             447.59,321.56 440.59,330.03 435.91,335.00
             432.43,338.69 428.24,341.45 425.90,346.01
             425.90,346.01 411.60,381.00 411.60,381.00
             411.60,381.00 387.40,441.00 387.40,441.00
             384.53,448.16 379.04,466.15 372.96,469.99
             369.44,472.21 365.96,471.99 362.00,472.00
             362.00,472.00 256.00,472.00 256.00,472.00
             252.15,471.99 248.48,472.22 245.10,469.99
             239.57,466.34 234.15,447.81 231.58,441.00
             231.58,441.00 205.42,371.00 205.42,371.00
             205.42,371.00 194.21,341.00 194.21,341.00
             194.21,341.00 171.69,312.00 171.69,312.00
             155.68,287.41 143.05,254.64 143.00,225.00
             142.96,201.23 142.79,186.34 150.02,163.00
             153.21,152.71 156.04,147.43 160.75,138.00
             178.98,101.55 199.55,80.98 236.00,62.75
             243.27,59.12 248.21,56.46 256.00,53.69
             269.45,48.90 281.09,47.41 295.00,45.21
             295.00,45.21 325.00,45.21 325.00,45.21 Z
           M 387.00,363.00
           C 389.10,363.00 392.61,363.25 394.35,362.01
             396.21,360.68 398.19,355.24 399.15,353.00
             401.57,347.31 406.59,333.18 409.64,329.01
             412.21,325.49 415.89,323.06 418.91,319.96
             423.26,315.49 431.64,305.19 435.28,300.00
             453.89,273.41 462.37,242.22 462.00,210.00
             461.58,174.46 443.27,133.74 417.96,109.09
             404.20,95.68 387.64,84.97 370.00,77.43
             350.53,69.10 329.06,65.76 308.00,66.00
             299.11,66.11 285.72,68.46 277.00,70.63
             228.78,82.63 189.39,118.08 172.69,165.00
             161.70,195.89 161.55,225.58 170.15,257.00
             174.16,271.63 183.83,290.90 192.89,303.00
             198.31,310.23 211.16,323.01 213.93,330.00
             213.93,330.00 222.00,352.00 222.00,352.00
             222.85,354.44 224.71,360.54 226.70,362.01
             228.38,363.26 231.94,363.00 234.00,363.00
             234.00,363.00 306.00,363.00 306.00,363.00
             306.00,363.00 306.00,329.00 306.00,329.00
             306.00,329.00 317.00,329.00 317.00,329.00
             317.00,329.00 317.00,363.00 317.00,363.00
             317.00,363.00 387.00,363.00 387.00,363.00 Z" />
</svg>
