<?xml version="1.0" encoding="UTF-8" standalone="no"?>
<!DOCTYPE svg PUBLIC "-//W3C//DTD SVG 20010904//EN"
              "http://www.w3.org/TR/2001/REC-SVG-20010904/DTD/svg10.dtd">

<svg xmlns="http://www.w3.org/2000/svg"
     width="6.94444in" height="5.35556in"
     viewBox="0 0 625 482">
  <path id="Selection"
        fill="#3d3d3d" stroke="none" stroke-width="0"
        d="M 194.00,16.00
           C 194.00,16.00 242.00,16.00 242.00,16.00
             242.00,16.00 396.00,16.00 396.00,16.00
             396.00,16.00 451.00,16.00 451.00,16.00
             461.54,16.15 462.98,20.56 463.00,30.00
             463.00,30.00 463.00,365.00 463.00,365.00
             463.00,365.00 463.00,441.00 463.00,441.00
             463.00,448.42 465.31,461.98 456.98,465.26
             454.78,466.13 451.39,466.00 449.00,466.00
             449.00,466.00 229.00,466.00 229.00,466.00
             229.00,466.00 175.00,466.00 175.00,466.00
             164.46,465.85 163.02,461.44 163.00,452.00
             163.00,452.00 163.00,122.00 163.00,122.00
             163.00,122.00 163.00,44.00 163.00,44.00
             163.00,39.20 162.28,24.59 164.17,21.04
             165.52,18.52 166.69,18.02 169.02,16.74
             174.64,15.37 187.57,16.00 194.00,16.00 Z
           M 173.00,41.00
           C 173.00,41.00 173.00,441.00 173.00,441.00
             173.00,441.00 453.00,441.00 453.00,441.00
             453.00,441.00 453.00,41.00 453.00,41.00
             453.00,41.00 173.00,41.00 173.00,41.00 Z
           M 267.91,74.04
           C 286.16,93.02 281.83,129.01 259.00,142.65
             249.61,148.26 242.51,148.12 232.00,148.00
             191.46,147.52 176.51,92.69 208.04,69.17
             213.63,65.00 220.19,62.56 227.00,61.43
             242.82,59.47 256.51,62.18 267.91,74.04 Z
           M 203.98,92.00
           C 202.79,94.96 201.02,102.87 201.21,106.00
             202.23,122.43 217.42,138.24 234.00,138.96
             251.22,139.71 269.54,122.26 269.66,105.00
             269.79,86.95 251.13,68.89 233.00,70.30
             220.29,72.76 208.97,79.52 203.98,92.00 Z
           M 231.64,110.00
           C 232.94,103.14 241.27,98.17 242.60,94.00
             243.62,90.81 240.96,87.68 237.98,86.84
             232.57,85.33 228.67,92.63 225.73,93.83
             222.51,95.15 219.71,91.25 221.66,87.04
             224.68,80.57 235.75,78.96 242.00,80.39
             250.77,82.40 254.01,91.37 249.86,99.00
             247.47,103.41 243.18,105.95 240.87,109.17
             237.55,113.81 239.32,116.92 233.00,119.00
             232.18,116.17 231.08,112.97 231.64,110.00 Z
           M 430.00,80.00
           C 430.00,80.00 430.00,90.00 430.00,90.00
             430.00,90.00 300.00,90.00 300.00,90.00
             300.00,90.00 300.00,80.00 300.00,80.00
             300.00,80.00 430.00,80.00 430.00,80.00 Z
           M 430.00,110.00
           C 430.00,110.00 430.00,120.00 430.00,120.00
             430.00,120.00 300.00,120.00 300.00,120.00
             300.00,120.00 300.00,110.00 300.00,110.00
             300.00,110.00 430.00,110.00 430.00,110.00 Z
           M 236.69,127.92
           C 233.85,129.52 229.54,126.58 232.60,122.04
             239.23,119.64 239.96,126.08 236.69,127.92 Z
           M 430.00,140.00
           C 430.00,140.00 430.00,150.00 430.00,150.00
             430.00,150.00 300.00,150.00 300.00,150.00
             300.00,150.00 300.00,140.00 300.00,140.00
             300.00,140.00 430.00,140.00 430.00,140.00 Z
           M 430.00,190.00
           C 430.00,190.00 430.00,230.00 430.00,230.00
             430.00,230.00 200.00,230.00 200.00,230.00
             200.00,230.00 200.00,190.00 200.00,190.00
             200.00,190.00 430.00,190.00 430.00,190.00 Z
           M 430.00,270.00
           C 430.00,270.00 430.00,310.00 430.00,310.00
             430.00,310.00 200.00,310.00 200.00,310.00
             200.00,310.00 200.00,270.00 200.00,270.00
             200.00,270.00 430.00,270.00 430.00,270.00 Z
           M 430.00,350.00
           C 430.00,350.00 430.00,390.00 430.00,390.00
             430.00,390.00 200.00,390.00 200.00,390.00
             200.00,390.00 200.00,350.00 200.00,350.00
             200.00,350.00 430.00,350.00 430.00,350.00 Z" />
</svg>
